<svg width="538" height="509" viewBox="0 0 538 509" fill="none" xmlns="http://www.w3.org/2000/svg">
<path d="M253.069 462.5C260.236 464.167 280.569 465.3 284.569 452.5" stroke="white" stroke-width="5" stroke-linecap="round"/>
<path d="M263.569 434.5C275.569 446 294.569 464.5 304.569 449.5L310.569 439.5" stroke="white" stroke-width="5" stroke-linecap="round"/>
<path d="M263.569 403.5C277.236 416.5 319.169 447.7 337.569 436.5C340.902 434.333 347.669 427.4 348.069 417" stroke="white" stroke-width="5" stroke-linecap="round"/>
<path d="M296.569 386C313.402 399.167 350.569 422.7 364.569 411.5C378.569 400.3 364.069 384.833 355.069 378.5L294.569 329.5" stroke="white" stroke-width="5" stroke-linecap="round"/>
<path d="M122.569 338.5C130.069 342.44 138.344 352.657 141.069 362C144.569 374 154.402 384.333 158.569 387.5" stroke="white" stroke-width="5" stroke-linecap="round"/>
<path d="M272.569 271.5C262.569 267.5 234.569 259.4 212.569 263C190.569 266.6 192.569 259.5 182.069 253.5L122.569 217" stroke="white" stroke-width="5" stroke-linecap="round"/>
<path d="M352.569 268.5L374.569 257M372.069 398C381.269 395.6 396.569 382 403.069 375.5L428.569 362" stroke="white" stroke-width="5" stroke-linecap="round"/>
<path d="M354.569 322C339.902 330.833 303.169 341.7 273.569 318.5" stroke="white" stroke-width="5" stroke-linecap="round"/>
<path d="M273.569 318.5C262.569 334 236.769 363.6 221.569 358C206.369 352.4 213.235 336 218.569 328.5C234.069 297.5 282.569 242.1 352.569 268.5" stroke="white" stroke-width="5" stroke-linecap="round"/>
<path d="M254.069 444.5C253.669 459.3 248.902 465.667 246.569 467C235.194 473.5 222.569 463.5 226.092 455.372C228.511 450.87 231.751 441.581 233.069 437.5C236.136 428 254.469 429.7 254.069 444.5Z" stroke="white" stroke-width="5" stroke-linecap="round"/>
<path d="M212.569 458.5C195.769 462.1 195.569 445 203.069 436.5C205.472 433.776 211.469 428.179 219.069 422C226.669 415.821 231.569 421.092 233.069 424.5C235.05 429 229.369 454.9 212.569 458.5Z" stroke="white" stroke-width="5" stroke-linecap="round"/>
<path d="M184.569 438.5C166.169 438.1 167.069 422 174.569 415C180.402 408.833 195.269 397.4 208.069 401C220.869 404.6 218.069 416.5 215.069 422.5C212.569 428 202.969 438.9 184.569 438.5Z" stroke="white" stroke-width="5" stroke-linecap="round"/>
<path d="M190.569 383C170.969 378.2 154.402 390 148.569 396.5C144.569 401.7 144.902 407.667 145.569 410C150.369 422 172.569 413.333 183.069 407.5C193.736 401.333 210.169 387.8 190.569 383Z" stroke="white" stroke-width="5" stroke-linecap="round"/>
<path d="M217.569 203C220.569 209.667 225.669 226.1 222.069 238.5" stroke="white" stroke-width="5" stroke-linecap="round"/>
<path d="M236.069 215.5C236.902 219.167 238.569 228 238.569 234" stroke="white" stroke-width="5" stroke-linecap="round"/>
<path d="M298.569 180L310.069 220.5" stroke="white" stroke-width="5" stroke-linecap="round"/>
<path d="M331.069 198L327.569 222" stroke="white" stroke-width="5" stroke-linecap="round"/>
<path d="M362.069 215.5L344.569 229" stroke="white" stroke-width="5" stroke-linecap="round"/>
<circle cx="16.0688" cy="259.5" r="15.5" fill="white"/>
<path d="M41.5434 260.824C67.7647 258.125 108.909 261.317 113.772 281.6C118.634 301.883 100.065 309.301 90.1724 310.475C52.509 316.461 2.56885 313.644 2.56885 281.6" stroke="white" stroke-width="5" stroke-linecap="round"/>
<circle cx="32.0688" cy="288.5" r="4" stroke="white" stroke-width="3"/>
<path d="M62.0688 288.5C62.0688 290.589 60.1797 292.5 57.5688 292.5C54.958 292.5 53.0688 290.589 53.0688 288.5C53.0688 286.411 54.958 284.5 57.5688 284.5C60.1797 284.5 62.0688 286.411 62.0688 288.5Z" stroke="white" stroke-width="3"/>
<circle cx="83.0688" cy="288.5" r="4" stroke="white" stroke-width="3"/>
<circle cx="451.069" cy="446.5" r="14.5" fill="white"/>
<path d="M474.645 436C483.438 436 508.565 436 520.384 436C529.958 436 534.567 438.118 534.567 452.942C534.567 467.345 534.449 486.002 534.567 493.532C534.65 498.826 532.014 504.685 523.221 505.532C514.427 506.379 479.135 505.885 462.588 505.532C456.442 505.532 445.569 502.048 445.569 487.884L445.569 472.001" stroke="white" stroke-width="5" stroke-linecap="round"/>
<path d="M468.569 461L490.569 476" stroke="white" stroke-width="5" stroke-linecap="round"/>
<path d="M490.569 476L530.569 439" stroke="white" stroke-width="5" stroke-linecap="round"/>
<path d="M460.569 489L476.696 467M500.708 467L522.569 489" stroke="white" stroke-width="5" stroke-linecap="round"/>
<path d="M458.323 202.045L406.323 241.545C340.323 292.045 404.822 348.712 428.822 361.545L505.323 312.545" stroke="white" stroke-width="5" stroke-linecap="round"/>
<path d="M236.968 74.2422C244.468 73.2422 260.568 67.5422 264.968 52.7422" stroke="white" stroke-width="5" stroke-linecap="round"/>
<path d="M212.468 62.2422C217.468 62.4089 228.968 59.9422 234.968 48.7422" stroke="white" stroke-width="5" stroke-linecap="round"/>
<path d="M189.968 44.2422C197.968 42.5807 215.368 37.4062 220.968 30" stroke="white" stroke-width="5" stroke-linecap="round"/>
<path d="M262.315 99.3883C212.037 110.61 165.161 60.5584 146.561 32.125C145.852 31.0413 146.381 29.6035 147.608 29.1917L226.757 2.64833C227.495 2.40067 228.306 2.60316 228.85 3.1603C255.206 30.1354 304.17 42.0222 329.978 45.2679C331.803 45.4973 332.445 47.8701 330.965 48.9618L263.058 99.049C262.838 99.2117 262.583 99.3286 262.315 99.3883Z" stroke="white" stroke-width="5" stroke-linecap="round"/>
</svg>
