<svg width="823" height="699" viewBox="0 0 823 699" fill="none" xmlns="http://www.w3.org/2000/svg">
<path d="M187.514 439.721L153.855 307.981L591.788 196.092L598.208 221.221" stroke="white" stroke-width="3"/>
<path d="M203.482 502.221L229.108 602.519L238.565 600.103" stroke="white" stroke-width="3"/>
<path d="M391.565 583.5L410.065 579" stroke="white" stroke-width="3" stroke-linecap="round"/>
<path d="M439.565 572.001L592.315 535.203" stroke="white" stroke-width="3" stroke-linecap="round"/>
<path d="M380.565 586L242.741 618.381L211.565 487.5" stroke="white" stroke-width="3" stroke-linecap="round"/>
<path d="M200.547 441.5L172.202 322.678L611.866 217.797L653.876 393.908" stroke="white" stroke-width="3" stroke-linecap="round"/>
<path d="M64.6079 268.786C60.2223 269.727 56.0365 271.106 52.0783 272.834L54.2033 282.741C48.9279 285.278 44.1946 288.547 40.0666 292.472L31.5593 286.97C28.4791 290.12 25.7963 293.615 23.4128 297.301C21.0292 300.986 18.9414 304.867 17.3322 308.968L25.8395 314.47C23.9521 319.845 22.9119 325.502 22.7622 331.354L12.8555 333.479C12.9021 337.798 13.3613 342.181 14.302 346.567C15.2428 350.952 16.6216 355.138 18.3504 359.096L28.2571 356.971C30.7936 362.247 34.0626 366.98 37.9884 371.108L32.4862 379.615C35.6358 382.696 39.1314 385.378 42.8168 387.762C46.5021 390.145 50.3825 392.233 54.4836 393.842L59.9857 385.335C65.3607 387.223 71.0184 388.263 76.87 388.412L78.995 398.319C83.3139 398.272 87.697 397.813 92.0826 396.873C96.4682 395.932 100.654 394.553 104.612 392.824L102.487 382.918C107.763 380.381 112.496 377.112 116.624 373.186L125.131 378.688C128.212 375.539 130.894 372.043 133.278 368.358C135.661 364.673 137.749 360.792 139.358 356.691L130.851 351.189C132.738 345.814 133.779 340.156 133.928 334.305L143.835 332.18C143.788 327.861 143.329 323.478 142.389 319.092C141.448 314.706 140.069 310.521 138.34 306.562L128.433 308.687C125.897 303.412 122.628 298.679 118.702 294.551L124.204 286.043C121.055 282.963 117.559 280.28 113.874 277.897C110.188 275.513 106.308 273.425 102.207 271.816L96.7048 280.323C91.3298 278.436 85.6722 277.396 79.8206 277.246L77.6956 267.339C73.3766 267.386 68.9935 267.845 64.6079 268.786ZM71.4766 300.808C89.1525 297.016 106.575 308.285 110.367 325.961C114.158 343.637 102.89 361.059 85.214 364.851C67.538 368.642 50.1152 357.374 46.3237 339.698C42.5322 322.022 53.8007 304.599 71.4766 300.808Z" fill="white"/>
<path d="M319.649 352.749C315.286 353.79 311.133 355.264 307.215 357.083L309.566 366.938C304.35 369.595 299.693 372.971 295.656 376.99L287.025 371.684C284.018 374.903 281.415 378.459 279.117 382.198C276.818 385.937 274.82 389.864 273.305 394.001L281.936 399.307C280.172 404.724 279.261 410.404 279.245 416.257L269.39 418.608C269.535 422.925 270.094 427.297 271.135 431.66C272.176 436.023 273.65 440.176 275.469 444.093L285.325 441.742C287.981 446.958 291.357 451.616 295.377 455.653L290.07 464.284C293.29 467.291 296.846 469.893 300.585 472.192C304.323 474.491 308.251 476.489 312.387 478.004L317.694 469.373C323.11 471.137 328.79 472.048 334.644 472.064L336.995 481.919C341.311 481.774 345.683 481.214 350.046 480.174C354.409 479.133 358.562 477.659 362.48 475.84L360.129 465.984C365.345 463.328 370.002 459.951 374.039 455.932L382.67 461.238C385.677 458.019 388.279 454.463 390.578 450.724C392.877 446.985 394.875 443.058 396.39 438.921L387.759 433.615C389.523 428.198 390.434 422.519 390.45 416.665L400.305 414.314C400.16 409.997 399.601 405.626 398.56 401.263C397.519 396.9 396.045 392.747 394.226 388.829L384.37 391.18C381.714 385.964 378.338 381.307 374.318 377.27L379.625 368.639C376.405 365.631 372.849 363.029 369.11 360.731C365.372 358.432 361.444 356.433 357.308 354.918L352.001 363.549C346.585 361.785 340.905 360.875 335.051 360.859L332.7 351.003C328.383 351.149 324.012 351.708 319.649 352.749V352.749ZM327.248 384.605C344.833 380.41 362.509 391.277 366.704 408.862C370.898 426.447 360.031 444.123 342.447 448.317C324.862 452.512 307.186 441.645 302.991 424.06C298.797 406.476 309.664 388.8 327.248 384.605Z" stroke="white" stroke-width="5" stroke-linecap="round" stroke-linejoin="round"/>
<path d="M354.659 498.395C352.561 498.896 350.564 499.605 348.679 500.48L349.81 505.219C347.302 506.497 345.062 508.121 343.12 510.054L338.97 507.502C337.523 509.05 336.272 510.76 335.166 512.558C334.061 514.356 333.1 516.245 332.371 518.234L336.522 520.786C335.674 523.391 335.236 526.123 335.228 528.938L330.488 530.068C330.558 532.144 330.827 534.247 331.328 536.345C331.828 538.443 332.537 540.44 333.412 542.324L338.152 541.194C339.429 543.702 341.053 545.942 342.986 547.884L340.434 552.034C341.982 553.481 343.693 554.732 345.491 555.837C347.289 556.943 349.177 557.904 351.167 558.633L353.719 554.482C356.324 555.33 359.055 555.768 361.87 555.776L363.001 560.515C365.077 560.446 367.179 560.177 369.277 559.676C371.376 559.175 373.373 558.466 375.257 557.592L374.126 552.852C376.635 551.575 378.875 549.951 380.816 548.018L384.967 550.57C386.413 549.022 387.665 547.311 388.77 545.513C389.875 543.715 390.837 541.827 391.565 539.837L387.414 537.285C388.263 534.68 388.701 531.949 388.708 529.134L393.448 528.003C393.378 525.927 393.109 523.825 392.608 521.727C392.108 519.628 391.399 517.631 390.524 515.747L385.785 516.878C384.507 514.369 382.883 512.129 380.95 510.188L383.502 506.037C381.954 504.591 380.244 503.339 378.446 502.234C376.648 501.128 374.759 500.167 372.77 499.439L370.218 503.589C367.613 502.741 364.881 502.303 362.066 502.296L360.936 497.556C358.86 497.626 356.757 497.895 354.659 498.395V498.395ZM358.314 513.716C366.77 511.698 375.271 516.924 377.288 525.381C379.306 533.838 374.079 542.339 365.623 544.356C357.166 546.373 348.665 541.147 346.648 532.69C344.631 524.234 349.857 515.733 358.314 513.716Z" stroke="white" stroke-opacity="0.7" stroke-width="3" stroke-linecap="round" stroke-linejoin="round"/>
<path d="M596.041 485.056L617.837 434.396C638.125 387.238 695.533 369.062 739.266 395.948C783.075 422.882 792.712 482.455 759.629 521.827L724.151 564.051C699.905 592.907 658.184 599.656 626.076 579.916C593.904 560.137 581.116 519.748 596.041 485.056Z" stroke="white" stroke-width="5"/>
<path d="M609.41 458.963L618.097 437.288C637.178 389.676 694.537 370.719 738.232 397.583C782.016 424.501 790.923 484.405 756.864 522.897L741.391 540.385C716.056 569.016 673.809 575.298 641.241 555.275C608.595 535.204 595.154 494.535 609.41 458.963Z" fill="white"/>
<circle cx="334.793" cy="415.997" r="15.5" transform="rotate(-13.417 334.793 415.997)" stroke="white" stroke-width="2"/>
<circle cx="334.793" cy="415.997" r="22.5" transform="rotate(-13.417 334.793 415.997)" stroke="white" stroke-width="2"/>
<path d="M311.263 315.206L372.057 570.055" stroke="white" stroke-width="2" stroke-linecap="round" stroke-dasharray="12 12"/>
<path d="M420.76 282.917L463.919 463.841" stroke="white" stroke-width="2" stroke-linecap="round" stroke-dasharray="12 12"/>
<path d="M487.064 272.002L536.255 478.216" stroke="white" stroke-width="2" stroke-linecap="round" stroke-dasharray="12 12"/>
<path d="M559.081 276.651L598.295 441.038" stroke="white" stroke-width="2" stroke-linecap="round" stroke-dasharray="12 12"/>
<path d="M300.29 545.024L419.933 516.484" stroke="white" stroke-width="2" stroke-linecap="round" stroke-dasharray="12 12"/>
<path d="M238.125 439.571L605.808 351.862" stroke="white" stroke-width="2" stroke-linecap="round" stroke-dasharray="12 12"/>
<path d="M303.307 557.67L315.952 554.653" stroke="white" stroke-width="3" stroke-linecap="round"/>
<path d="M439.619 512.816L523.272 492.861" stroke="white" stroke-width="3" stroke-linecap="round"/>
<path d="M442.404 524.488L519.248 506.157" stroke="white" stroke-width="3" stroke-linecap="round"/>
<path d="M444.028 531.297L485.854 521.32" stroke="white" stroke-width="3" stroke-linecap="round"/>
<path d="M304.931 564.479L331.194 558.214" stroke="white" stroke-width="3" stroke-linecap="round"/>
<path d="M454.775 356.123L468.848 333.233" stroke="white" stroke-opacity="0.6" stroke-width="3" stroke-linecap="round"/>
<path d="M447.444 394.779L500.032 309.242" stroke="white" stroke-opacity="0.6" stroke-width="3" stroke-linecap="round"/>
<path d="M460.235 400.705L477.316 372.908M510.816 318.908L493.3 346.922" stroke="white" stroke-opacity="0.6" stroke-width="3" stroke-linecap="round"/>
<path d="M469.816 411.853L482.932 390.518M526.107 320.292L513.3 341.123" stroke="white" stroke-opacity="0.6" stroke-width="3" stroke-linecap="round"/>
<path d="M475.199 429.827L492.895 401.043M543.316 318.408L526.816 345.908" stroke="white" stroke-opacity="0.6" stroke-width="3" stroke-linecap="round"/>
<path d="M492.31 428.726L505.524 407.232M550.316 334.908L537.816 354.408" stroke="white" stroke-opacity="0.6" stroke-width="3" stroke-linecap="round"/>
<path d="M507.94 430.034L521.703 407.371M557.816 347.908L543.316 372.408" stroke="white" stroke-opacity="0.6" stroke-width="3" stroke-linecap="round"/>
<path d="M519.125 438.571L571.816 351.908" stroke="white" stroke-opacity="0.6" stroke-width="3" stroke-linecap="round"/>
<path d="M548.828 416.989L564.816 390.908" stroke="white" stroke-opacity="0.6" stroke-width="3" stroke-linecap="round"/>
<path d="M495.069 311.033C490.706 312.073 486.552 313.548 482.635 315.366L484.986 325.222C479.77 327.878 475.112 331.255 471.075 335.274L462.444 329.968C459.437 333.187 456.835 336.743 454.536 340.482C452.238 344.221 450.239 348.148 448.724 352.285L457.355 357.591C455.591 363.008 454.68 368.688 454.665 374.541L444.809 376.892C444.955 381.209 445.514 385.58 446.555 389.943C447.595 394.306 449.07 398.459 450.888 402.377L460.744 400.026C463.4 405.242 466.777 409.899 470.796 413.937L465.49 422.567C468.709 425.575 472.265 428.177 476.004 430.476C479.743 432.774 483.67 434.773 487.807 436.288L493.113 427.657C498.53 429.421 504.21 430.331 510.063 430.347L512.414 440.203C516.731 440.057 521.102 439.498 525.465 438.457C529.828 437.416 533.981 435.942 537.899 434.123L535.548 424.268C540.764 421.611 545.421 418.235 549.459 414.216L558.089 419.522C561.097 416.303 563.699 412.747 565.998 409.008C568.296 405.269 570.295 401.342 571.81 397.205L563.179 391.899C564.943 386.482 565.853 380.802 565.869 374.949L575.725 372.598C575.579 368.281 575.02 363.909 573.979 359.546C572.938 355.184 571.464 351.03 569.645 347.113L559.79 349.464C557.133 344.248 553.757 339.59 549.738 335.553L555.044 326.922C551.825 323.915 548.269 321.313 544.53 319.014C540.791 316.716 536.864 314.717 532.727 313.202L527.421 321.833C522.004 320.069 516.324 319.158 510.471 319.143L508.12 309.287C503.803 309.432 499.431 309.992 495.069 311.033V311.033ZM502.668 342.889C520.252 338.694 537.928 349.561 542.123 367.146C546.318 384.73 535.451 402.406 517.866 406.601C500.281 410.796 482.606 399.929 478.411 382.344C474.216 364.759 485.083 347.083 502.668 342.889Z" stroke="white" stroke-width="5" stroke-linecap="round" stroke-linejoin="round"/>
<path d="M218.803 375.814L365.196 340.892" stroke="white" stroke-width="3" stroke-linecap="round"/>
<path d="M304.274 490.615L394.736 469.036" stroke="white" stroke-width="3" stroke-linecap="round"/>
<path d="M422.458 462.423L569.823 427.269" stroke="white" stroke-width="3" stroke-linecap="round"/>
<path d="M452.369 320.612L541.858 299.264" stroke="white" stroke-width="3" stroke-linecap="round"/>
<path d="M457.04 599.234C453.04 594.734 448.54 588.234 447.54 581.234C446.852 576.417 441.707 573.067 438.54 573.234" stroke="white" stroke-width="5" stroke-linecap="round"/>
<path d="M439.04 581.234C439.04 577.567 439.34 570.334 430.54 570.734" stroke="white" stroke-width="5" stroke-linecap="round"/>
<path d="M432.54 577.734C431.207 573.901 427.431 566.634 420.631 570.234" stroke="white" stroke-width="5" stroke-linecap="round"/>
<path d="M427.04 582.234C424.873 580.901 422.04 575.434 420.04 568.234C418.04 561.034 407.54 554.901 402.54 552.734C399.874 551.567 394.54 550.934 394.54 557.734C394.54 563.734 409.24 568.934 410.04 577.734C410.84 586.534 410.374 590.401 410.04 591.234C409.207 592.901 406.24 594.934 401.04 589.734C395.84 584.534 389.04 583.234 385.54 584.234C382.54 585.234 378.34 588.634 385.54 594.234C390.89 598.395 408.44 606.134 424.04 625.734" stroke="white" stroke-width="5" stroke-linecap="round"/>
<path d="M594.899 677.045C554.099 638.245 496.899 603 472.307 603C427.361 603 428.46 625.083 434.701 636.311C434.772 636.439 434.851 636.549 434.949 636.657C447.538 650.569 477.992 681.654 500.307 696" stroke="white" stroke-width="5" stroke-linecap="round"/>
<path d="M46.5647 666.845C56.1647 653.245 81.2314 615.598 92.0647 597.345C99.4836 584.845 105.047 570.948 107.065 561.5C111.065 542.774 122.565 509 157.565 555.5C165.844 566.5 173.899 576.545 140.399 641.545" stroke="white" stroke-width="5" stroke-linecap="round"/>
<path d="M171.161 545.096C178.478 536.091 191.704 522.02 197.051 512.17L205.775 497.255C211.685 487.76 214.215 480.02 216.473 475.823C217.477 473.958 218.101 472.541 219.492 469.769C220.753 467.252 221.863 464.711 220.982 462.626C220.308 461.03 217.495 458.236 211.636 459.831C205.778 461.426 201.782 466.374 200.517 468.648C199.25 470.533 193.747 477.362 192.24 478.86C188.738 482.343 171.487 496.784 160.727 488.323" stroke="white" stroke-width="5" stroke-linecap="round"/>
<path d="M158.634 474.339C167.565 469.618 184.914 461.105 190.958 455.26C197.165 454.059 212.493 456.067 210.946 447.837C210.623 446.122 205.227 441.869 197.204 440.425C191.431 439.387 187.245 438.981 182.449 441.558C179.729 443.02 178.651 443.539 175.14 445.87C172.415 447.071 170.755 448.459 168.53 449.989C166.244 451.56 162.933 454.058 158.302 458.428" stroke="white" stroke-width="5" stroke-linecap="round"/>
<path d="M175.14 445.87C173.684 445.078 167.389 445.129 159.968 448.805C151.862 452.82 150.477 454.34 147.338 456.411C144.199 458.482 137.921 462.624 135.463 464.623C131.115 468.158 127.152 472.144 125.587 474.154C122.833 478.408 124.368 481.626 128.508 489.547" stroke="white" stroke-width="5" stroke-linecap="round"/>
<path d="M130.99 504.253C130.99 509.526 129.793 522.02 126.134 532.433" stroke="white" stroke-width="5" stroke-linecap="round"/>
<path d="M203.563 464.624L132.958 503.202C124.428 506.538 118.494 494.846 127.444 490.898L158.585 474.295M213.384 459.124L226.441 452.065L220.258 442.177L211.419 446.642" stroke="white" stroke-width="5" stroke-linecap="round"/>
<path d="M228.203 451.106L235.565 440.211" stroke="white" stroke-width="5" stroke-linecap="round"/>
<path d="M222.012 441.257L235.565 440.211" stroke="white" stroke-width="5" stroke-linecap="round"/>
<path d="M255.701 232.897C257.146 247.96 235.75 250.875 234.827 233.637L232.733 98.1356L231.988 61.6768C231.966 60.5564 232.867 59.6359 233.988 59.6359L251.947 59.6359M255.701 232.897L253.234 98.1369L251.947 59.6359M255.701 232.897L283.135 232.897C284.278 232.897 285.188 231.942 285.133 230.8L278.734 98.1369L277.036 61.5432C276.986 60.4758 276.106 59.6359 275.038 59.6359L251.947 59.6359" stroke="white" stroke-width="5" stroke-linecap="round"/>
<rect x="279.48" y="114.137" width="228" height="142" rx="7.5" transform="rotate(-30 279.48 114.137)" stroke="white" stroke-width="5"/>
<ellipse cx="309.282" cy="121.757" rx="5.5" ry="6" transform="rotate(-30 309.282 121.757)" fill="white"/>
<path d="M489.717 127.279L520.894 109.279M505.586 129.664L525.894 117.94" stroke="white" stroke-width="5" stroke-linecap="round"/>
<path d="M346.541 179.144C353.095 174.519 371.742 169.235 394.854 184.041C395.55 184.487 396.479 183.969 396.437 183.143C395.001 154.895 396.066 124.98 454.335 126.488C455.372 126.515 455.873 125.069 455.03 124.466C439.327 113.234 419.447 86.8067 443.481 53.9068C444.041 53.1395 443.355 52.0414 442.432 52.2666L433.411 54.4667C432.369 54.7208 431.764 53.4508 432.645 52.8393C440.944 47.081 453.103 40.8475 451.856 48.3268C450.373 57.2257 451.354 61.7443 456.2 67.3428" stroke="white" stroke-width="5" stroke-linecap="round"/>
</svg>
