<svg width="714" height="522" viewBox="0 0 714 522" fill="none" xmlns="http://www.w3.org/2000/svg">
<g clip-path="url(#clip0_13_2)">
<path d="M545.565 486.454C523.965 468.854 553.231 466.787 570.565 467.954V479.454L612.065 489.954C598.898 496.121 567.165 504.054 545.565 486.454Z" fill="#FEFDFB"/>
<path d="M659.065 475.954C645.065 477.554 640.899 471.287 640.565 467.954H670.565C672.565 469.954 673.065 474.354 659.065 475.954Z" fill="#FEFDFB"/>
<path d="M627.565 427.454C612.065 427.454 603.565 426.454 591.065 425.454" stroke="#FEFDFB" stroke-width="5" stroke-linecap="round"/>
<path d="M639.565 433.454V481.454" stroke="#FEFDFB" stroke-width="5" stroke-linecap="round"/>
<path d="M603.565 435.954L570.565 433.454" stroke="#FEFDFB" stroke-width="5" stroke-linecap="round"/>
<path d="M619.065 440.954V489.454" stroke="#FEFDFB" stroke-width="5" stroke-linecap="round"/>
<path d="M618.565 490.454L639.565 481.954" stroke="#FEFDFB" stroke-width="5" stroke-linecap="round"/>
<path d="M590.565 425.454L570.565 433.454" stroke="#FEFDFB" stroke-width="5" stroke-linecap="round"/>
<path d="M570.065 433.954V479.954" stroke="#FEFDFB" stroke-width="5" stroke-linecap="round"/>
<path d="M569.565 479.454L618.565 490.454" stroke="#FEFDFB" stroke-width="5" stroke-linecap="round"/>
<path d="M627.565 428.454V414.454" stroke="#FEFDFB" stroke-width="5" stroke-linecap="round"/>
<path d="M671.065 467.454V418.954" stroke="#FEFDFB" stroke-width="5" stroke-linecap="round"/>
<path d="M694.565 402.954V456.954" stroke="#FEFDFB" stroke-width="5" stroke-linecap="round"/>
<path d="M671.065 468.454L694.565 456.954" stroke="#FEFDFB" stroke-width="5" stroke-linecap="round"/>
<path d="M694.565 402.454L641.565 400.454" stroke="#FEFDFB" stroke-width="5" stroke-linecap="round"/>
<path d="M627.565 414.454L641.565 400.454" stroke="#FEFDFB" stroke-width="5" stroke-linecap="round"/>
<path d="M671.065 418.454L694.065 403.454" stroke="#FEFDFB" stroke-width="5" stroke-linecap="round"/>
<path d="M671.065 467.454H641.565" stroke="#FEFDFB" stroke-width="5" stroke-linecap="round"/>
<path d="M628.065 414.454L656.565 415.454" stroke="#FEFDFB" stroke-width="5" stroke-linecap="round"/>
<path d="M228.532 507.5C229.032 493.5 285.032 498 288.532 498.5V507.5L305.532 519.5C279.698 520.167 228.132 518.7 228.532 507.5Z" fill="#FEFDFB"/>
<path d="M367.531 506V455" stroke="#FEFDFB" stroke-width="5" stroke-linecap="round"/>
<path d="M324.031 519V463" stroke="#FEFDFB" stroke-width="5" stroke-linecap="round"/>
<path d="M288.031 506V450" stroke="#FEFDFB" stroke-width="5" stroke-linecap="round"/>
<path d="M288.031 450L327.531 440" stroke="#FEFDFB" stroke-width="5" stroke-linecap="round"/>
<path d="M367.531 454.5L324.031 462.5" stroke="#FEFDFB" stroke-width="5" stroke-linecap="round"/>
<path d="M324.031 519.5L367.531 506.5" stroke="#FEFDFB" stroke-width="5" stroke-linecap="round"/>
<path d="M367.531 454.5L327.531 440" stroke="#FEFDFB" stroke-width="5" stroke-linecap="round"/>
<path d="M288.031 450.5L324.531 462.5" stroke="#FEFDFB" stroke-width="5" stroke-linecap="round"/>
<path d="M416.276 505C407.076 489 436.443 486.666 452.276 487.5V499L503.776 505C478.443 511.666 425.476 521 416.276 505Z" fill="#FEFDFB"/>
<path d="M529.275 483.5L509.775 503.5" stroke="#FEFDFB" stroke-width="5" stroke-linecap="round"/>
<path d="M505.275 442.5L454.775 439" stroke="#FEFDFB" stroke-width="5" stroke-linecap="round"/>
<path d="M475.275 426L529.275 428.5" stroke="#FEFDFB" stroke-width="5" stroke-linecap="round"/>
<path d="M453.775 439L451.275 497" stroke="#FEFDFB" stroke-width="5" stroke-linecap="round"/>
<path d="M529.275 429.5V482.5" stroke="#FEFDFB" stroke-width="5" stroke-linecap="round"/>
<path d="M509.775 461V503.5" stroke="#FEFDFB" stroke-width="5" stroke-linecap="round"/>
<path d="M453.775 439L475.275 426" stroke="#FEFDFB" stroke-width="5" stroke-linecap="round"/>
<path d="M509.775 503.5L450.775 497.5" stroke="#FEFDFB" stroke-width="5" stroke-linecap="round"/>
<path d="M405.85 130.264C408.017 129.597 413.75 128.964 419.35 131.764" stroke="#FEFDFB" stroke-width="5" stroke-linecap="round"/>
<path d="M385.85 156.264C389.716 156.264 392.85 152.906 392.85 148.764C392.85 144.622 389.716 141.264 385.85 141.264C381.984 141.264 378.85 144.622 378.85 148.764C378.85 152.906 381.984 156.264 385.85 156.264Z" fill="#FEFDFB"/>
<path d="M442.85 166.264C446.716 166.264 449.85 162.906 449.85 158.764C449.85 154.622 446.716 151.264 442.85 151.264C438.984 151.264 435.85 154.622 435.85 158.764C435.85 162.906 438.984 166.264 442.85 166.264Z" fill="#FEFDFB"/>
<path d="M368.85 136.764C369.35 133.597 372.45 127.564 380.85 128.764" stroke="#FEFDFB" stroke-width="5" stroke-linecap="round"/>
<path d="M432.85 135.764C436.85 132.264 446.85 127.364 454.85 135.764" stroke="#FEFDFB" stroke-width="5" stroke-linecap="round"/>
<path d="M411.35 144.264C416.017 151.931 422.55 168.364 411.35 172.764L405.85 174.764" stroke="#FEFDFB" stroke-width="5" stroke-linecap="round"/>
<path d="M392.35 190.264C393.517 193.431 397.95 198.664 406.35 194.264" stroke="#FEFDFB" stroke-width="5" stroke-linecap="round"/>
<path d="M231.349 116.764C214.949 170.764 260.515 209.931 285.349 222.764C307.749 209.164 339.682 202.264 353.349 200.264C336.349 186.264 331.182 160.597 329.849 148.764C320.849 151.764 296.849 140.264 307.849 116.764C316.649 97.964 326.182 107.597 329.849 114.764L354.349 125.764C354.349 102.964 370.015 95.264 377.849 94.264C382.649 91.064 387.849 80.597 389.849 75.764C392.249 94.564 416.849 108.264 428.849 112.764C444.449 100.364 457.015 107.597 461.349 112.764L472.349 111.264C493.849 103.931 532.449 78.864 514.849 37.264C497.249 -4.33601 460.849 3.26399 444.849 12.264C390.049 -24.136 335.015 29.097 314.349 60.264C293.515 56.597 247.749 62.764 231.349 116.764Z" fill="#FEFDFB"/>
<path d="M353.85 126.264L329.85 113.764" stroke="#FEFDFB" stroke-width="5" stroke-linecap="round"/>
<path d="M405.35 125.264C405.35 142.509 393.564 155.764 379.85 155.764C366.136 155.764 354.35 142.509 354.35 125.264C354.35 108.018 366.136 94.764 379.85 94.764C393.564 94.764 405.35 108.018 405.35 125.264Z" stroke="#FEFDFB" stroke-width="5"/>
<path d="M471.35 136.264C471.35 153.509 459.564 166.764 445.85 166.764C432.136 166.764 420.35 153.509 420.35 136.264C420.35 119.018 432.136 105.764 445.85 105.764C459.564 105.764 471.35 119.018 471.35 136.264Z" stroke="#FEFDFB" stroke-width="5"/>
<path d="M472.35 232.649C510.75 201.849 488.85 160.316 472.85 143.149C464.05 184.749 443.684 202.649 434.85 206.649L448.85 214.149L472.35 232.649Z" fill="#FEFDFB"/>
<path d="M332.85 125.264C332.017 116.097 321.35 94.264 309.85 114.764C304.85 124.097 301.25 144.064 326.85 149.264" stroke="#FEFDFB" stroke-width="5" stroke-linecap="round"/>
<path d="M324.349 121.764C322.016 123.764 318.549 128.964 323.349 133.764" stroke="#FEFDFB" stroke-width="5" stroke-linecap="round"/>
<path d="M469.351 147.764C466.551 163.764 460.35 178.257 453.85 187.264C449.786 192.896 443.201 200.005 434.805 206.202" stroke="#FEFDFB" stroke-width="5" stroke-linecap="round"/>
<path d="M329.35 149.264C329.017 169.597 336.951 199.764 373.351 215.764C378.95 218.225 384.455 219.637 389.805 220.206" stroke="#FEFDFB" stroke-width="5" stroke-linecap="round"/>
<path d="M431.35 240.264C423.35 238.264 415.684 244.764 412.85 248.264C411.35 251.431 410.65 257.664 419.85 257.264C431.35 256.764 434.85 240.264 448.35 266.764C459.15 287.964 459.85 329.597 458.85 347.764" stroke="#FEFDFB" stroke-width="5" stroke-linecap="round" stroke-linejoin="round"/>
<path d="M405.176 234.764C402.567 240.431 400.449 251.064 412.849 248.264" stroke="#FEFDFB" stroke-width="5" stroke-linecap="round" stroke-linejoin="round"/>
<path d="M410.002 215.264C403.002 218.264 392.85 229.064 396.85 236.264C397.35 237.097 398.85 238.664 400.85 238.264C401.726 238.089 403.154 236.564 405.177 234.764C408.929 231.425 414.729 227.14 422.85 228.764" stroke="#FEFDFB" stroke-width="5" stroke-linecap="round" stroke-linejoin="round"/>
<path d="M549.921 386.954C554.921 362.454 550.05 304.964 488.85 249.764L448.35 214.264L422.85 200.764L417.851 199.764L398.851 204.264L396.85 206.264L390.35 218.264C389.35 220.764 393.651 223.664 400.851 221.264" stroke="#FEFDFB" stroke-width="5" stroke-linecap="round" stroke-linejoin="round"/>
<path d="M351.85 202.264C319.35 206.597 234.98 225.227 183.85 300.764C135.662 371.954 190.162 401.954 230.662 403.454" stroke="#FEFDFB" stroke-width="5" stroke-linecap="round" stroke-linejoin="round"/>
<path d="M2.92042 413.454L228.421 402.454" stroke="#FEFDFB" stroke-width="5" stroke-linecap="round" stroke-linejoin="round"/>
<path d="M289.921 399.954L710.071 381.649" stroke="#FEFDFB" stroke-width="5" stroke-linecap="round"/>
<path d="M252.466 404.222C253.084 406.139 252.629 407.517 250.221 407.724C243.094 408.335 234.63 397.287 231.29 391.687" stroke="#FEFDFB" stroke-width="5" stroke-linecap="round"/>
<path d="M252.448 382.523C256.005 388.206 262.208 396.963 267.646 401.931C267.15 405.749 263.419 411.553 252.466 404.222C250.798 399.048 241.312 389.953 241.312 389.396" stroke="#FEFDFB" stroke-width="5" stroke-linecap="round"/>
<path d="M262.099 377.178C268.904 384.687 281.253 400.775 276.205 405.051C275.31 405.809 274.169 405.882 272.864 405.438C271.31 404.909 269.524 403.646 267.646 401.931C262.208 396.963 256.005 388.206 252.448 382.523" stroke="#FEFDFB" stroke-width="5" stroke-linecap="round"/>
<path d="M206.162 396.748C217.545 382.493 253.933 351.595 274.72 370.305C283.01 378.578 293.342 393.531 287.403 399.64C284.433 401.931 278.005 398.876 273.859 392.767" stroke="#FEFDFB" stroke-width="5" stroke-linecap="round"/>
<path d="M246.714 315.454C239.547 321.121 228.314 335.854 240.714 349.454" stroke="#FEFDFB" stroke-width="5" stroke-linecap="round"/>
</g>
<defs>
<clipPath id="clip0_13_2">
<rect width="713" height="522" fill="white" transform="translate(0.288574)"/>
</clipPath>
</defs>
</svg>
