<svg width="421" height="421" viewBox="0 0 421 421" fill="none" xmlns="http://www.w3.org/2000/svg">
<rect width="421" height="421" rx="75" fill="#171717"/>
<path d="M319.52 146.238C318.686 143.813 317.148 141.689 315.101 140.136C312.917 138.57 310.405 137.518 307.754 137.059C304.516 136.48 301.231 136.2 297.941 136.222C294.158 136.244 290.381 136.523 286.636 137.059C282.733 137.653 279.859 138.085 278.07 138.409V228.09C278.457 234.789 276.167 241.369 271.699 246.393C269.493 248.608 266.846 250.338 263.928 251.472C261.01 252.607 257.886 253.12 254.756 252.98C251.654 253.099 248.56 252.575 245.672 251.441C242.783 250.307 240.162 248.588 237.976 246.393C235.715 243.932 233.974 241.044 232.857 237.899C231.739 234.755 231.267 231.419 231.47 228.09V192.617C231.57 184.38 230.031 176.205 226.943 168.563C224.019 161.481 219.535 155.143 213.822 150.017C207.76 144.688 200.665 140.654 192.975 138.166C191.538 137.68 190.02 137.302 188.529 136.897C180.929 134.917 173.099 133.946 165.243 134.008C155.841 133.878 146.482 135.283 137.537 138.166C129.845 140.648 122.748 144.682 116.69 150.017C110.961 155.128 106.474 161.47 103.57 168.563C100.459 176.199 98.9107 184.377 99.0154 192.617V264.697C98.9037 268.175 99.399 271.646 100.479 274.955C101.342 277.365 102.874 279.481 104.898 281.056C107.054 282.594 109.527 283.636 112.136 284.107C115.408 284.713 118.73 285.003 122.058 284.971C125.842 284.953 129.62 284.664 133.362 284.107C137.293 283.54 140.14 283.081 141.929 282.757V193.4C141.73 190.079 142.193 186.753 143.291 183.612C144.389 180.47 146.101 177.576 148.327 175.096C150.522 172.874 153.163 171.136 156.078 169.996C158.992 168.857 162.115 168.341 165.243 168.482C168.351 168.365 171.451 168.892 174.344 170.03C177.238 171.169 179.862 172.894 182.05 175.096C184.295 177.565 186.02 180.456 187.124 183.6C188.227 186.744 188.687 190.076 188.475 193.4V228.819C188.395 237.035 189.962 245.185 193.083 252.791C195.98 259.896 200.468 266.249 206.204 271.365C212.269 276.689 219.363 280.722 227.051 283.216C228.461 283.675 229.979 284.08 231.47 284.485C239.074 286.44 246.902 287.402 254.756 287.346C264.16 287.509 273.528 286.141 282.489 283.297C290.172 280.794 297.265 276.762 303.336 271.446C309.065 266.292 313.551 259.915 316.456 252.791C319.548 245.15 321.087 236.975 320.983 228.738V156.496C321.1 153.018 320.604 149.546 319.52 146.238V146.238Z" fill="white"/>
</svg>
