<svg xmlns="http://www.w3.org/2000/svg" viewBox="0 0 81.88 56.83"><defs><style>.cls-1{fill:#0047ba;}</style></defs><g id="Layer_2" data-name="Layer 2"><g id="Layer_1-2" data-name="Layer 1"><path class="cls-1" d="M81.34,4.53a4.79,4.79,0,0,0-1.63-2.26A6.56,6.56,0,0,0,77,1.13,19.76,19.76,0,0,0,73.38.82a30.6,30.6,0,0,0-4.17.31c-1.44.22-2.5.38-3.16.5V34.85a9.41,9.41,0,0,1-2.35,6.78,8.28,8.28,0,0,1-6.25,2.44,8.27,8.27,0,0,1-6.19-2.44,9.22,9.22,0,0,1-2.4-6.78V21.71a23.11,23.11,0,0,0-1.67-8.91,18.94,18.94,0,0,0-4.84-6.87,21.8,21.8,0,0,0-7.69-4.39c-.53-.18-1.09-.32-1.64-.47A32.9,32.9,0,0,0,24.43,0,31.76,31.76,0,0,0,14.21,1.54,21.71,21.71,0,0,0,6.52,5.93,18.7,18.7,0,0,0,1.68,12.8,22.93,22.93,0,0,0,0,21.71v26.7a11.14,11.14,0,0,0,.54,3.8,5,5,0,0,0,1.63,2.26A6.61,6.61,0,0,0,4.84,55.6a19,19,0,0,0,3.66.32,29.14,29.14,0,0,0,4.17-.32c1.45-.21,2.5-.38,3.16-.5V22a9.34,9.34,0,0,1,2.36-6.78,8.23,8.23,0,0,1,6.24-2.45,8.28,8.28,0,0,1,6.2,2.45A9.23,9.23,0,0,1,33,22V35.12A22.89,22.89,0,0,0,34.7,44a18.66,18.66,0,0,0,4.84,6.88,21.87,21.87,0,0,0,7.69,4.39c.52.17,1.08.32,1.63.47a33.4,33.4,0,0,0,8.59,1.06A31.87,31.87,0,0,0,67.68,55.3a22,22,0,0,0,7.69-4.39A18.89,18.89,0,0,0,80.21,44a23.07,23.07,0,0,0,1.67-8.91V8.33A11.06,11.06,0,0,0,81.34,4.53Z"/></g></g></svg>