<svg xmlns="http://www.w3.org/2000/svg" viewBox="0 0 170.08 59.06"><defs><style>.cls-1{fill:#0047ba;}.cls-2{fill:#3ae9d6;}</style></defs><g id="Layer_2" data-name="Layer 2"><g id="Layer_1-2" data-name="Layer 1"><path class="cls-1" d="M36.58,5.68A5.11,5.11,0,0,1,38,1.89,5.07,5.07,0,0,1,41.75.5H60.1a6.63,6.63,0,0,1,.69,1.61,7,7,0,0,1,.31,2.12,4.08,4.08,0,0,1-.92,3,3.33,3.33,0,0,1-2.42.89H46v5.17H58.54a7.09,7.09,0,0,1,1,3.67,4.15,4.15,0,0,1-.89,3,3.23,3.23,0,0,1-2.39.88H46v5.84H60.32a6.93,6.93,0,0,1,.7,1.62,7.27,7.27,0,0,1,.3,2.11,4.18,4.18,0,0,1-.91,3,3.3,3.3,0,0,1-2.42.92H41.75a4.8,4.8,0,0,1-5.17-5.18Z"/><path class="cls-1" d="M170.08,34.43a15.76,15.76,0,0,1-1.92.33,20.57,20.57,0,0,1-2.58.17,12.47,12.47,0,0,1-2.26-.19,4,4,0,0,1-1.64-.7,3,3,0,0,1-1-1.39,6.82,6.82,0,0,1-.33-2.33V.5l1.94-.31A19.32,19.32,0,0,1,164.85,0a12.35,12.35,0,0,1,2.25.19,4.16,4.16,0,0,1,1.64.7,3,3,0,0,1,1,1.39,6.84,6.84,0,0,1,.33,2.34Z"/><path class="cls-1" d="M20.27,12.12a3.52,3.52,0,0,0-1.1-2.86,7.62,7.62,0,0,0-3.91-.91,19.22,19.22,0,0,0-3.47.31,6.53,6.53,0,0,0-2.1.95V34.37a14.88,14.88,0,0,1-2,.37,19.51,19.51,0,0,1-2.79.19,5,5,0,0,1-1.5-.19A4.11,4.11,0,0,1,1.57,34,3.64,3.64,0,0,1,.41,32.45,6.71,6.71,0,0,1,0,29.91V8.1A4.89,4.89,0,0,1,.72,5.33a7.63,7.63,0,0,1,2-1.94A17.83,17.83,0,0,1,8.07.94,25.6,25.6,0,0,1,15.26,0q7.09,0,10.93,3.11A10.51,10.51,0,0,1,30,11.74V34.37a25.46,25.46,0,0,1-3.85.56,14.29,14.29,0,0,1-2.48-.19A4.11,4.11,0,0,1,21.84,34a3.56,3.56,0,0,1-1.16-1.54,6.52,6.52,0,0,1-.41-2.54Z"/><path class="cls-1" d="M144,12.12a3.52,3.52,0,0,0-1.1-2.86A7.62,7.62,0,0,0,139,8.35a19.22,19.22,0,0,0-3.47.31,6.53,6.53,0,0,0-2.1.95V34.37a14.88,14.88,0,0,1-2,.37,19.51,19.51,0,0,1-2.79.19,5,5,0,0,1-1.5-.19,4.11,4.11,0,0,1-1.85-.75,3.64,3.64,0,0,1-1.16-1.54,6.71,6.71,0,0,1-.41-2.54V8.1a4.89,4.89,0,0,1,.72-2.77,7.63,7.63,0,0,1,2-1.94A17.83,17.83,0,0,1,131.84.94,25.6,25.6,0,0,1,139,0Q146.13,0,150,3.11a10.51,10.51,0,0,1,3.83,8.63V34.37a25.46,25.46,0,0,1-3.85.56,14.29,14.29,0,0,1-2.48-.19,4.11,4.11,0,0,1-1.85-.75,3.64,3.64,0,0,1-1.16-1.54,6.52,6.52,0,0,1-.41-2.54Z"/><path class="cls-2" d="M116.88,2.28a3.09,3.09,0,0,0-1-1.39,4.29,4.29,0,0,0-1.64-.7A12.47,12.47,0,0,0,112,0a19.05,19.05,0,0,0-2.55.19l-2,.31V21.42A5.74,5.74,0,0,1,106,25.59a5.61,5.61,0,0,1-7.64,0,5.67,5.67,0,0,1-1.48-4.17v.17a14,14,0,0,1-1,5.47,11.52,11.52,0,0,1-3,4.23c-.27.24-.57.47-.86.69a13.71,13.71,0,0,0,3.86,2,21.48,21.48,0,0,0,12.57,0,13.46,13.46,0,0,0,4.73-2.7,11.52,11.52,0,0,0,3-4.23,14,14,0,0,0,1-5.47v-17A6.84,6.84,0,0,0,116.88,2.28Z"/><path class="cls-1" d="M96.91,21.59a14,14,0,0,1-1,5.47,11.52,11.52,0,0,1-3,4.23A13.37,13.37,0,0,1,88.18,34a21.48,21.48,0,0,1-12.57,0,13.33,13.33,0,0,1-4.72-2.7,11.66,11.66,0,0,1-3-4.23,14.21,14.21,0,0,1-1-5.47V.5l2-.31A19.2,19.2,0,0,1,71.39,0a12.44,12.44,0,0,1,2.25.19,4.16,4.16,0,0,1,1.64.7,3,3,0,0,1,1,1.39,6.81,6.81,0,0,1,.34,2.34v16.8a5.7,5.7,0,0,0,1.47,4.17,5.63,5.63,0,0,0,7.65,0,5.77,5.77,0,0,0,1.44-4.17V.5L89.13.19A19.2,19.2,0,0,1,91.69,0a12.44,12.44,0,0,1,2.25.19,4.22,4.22,0,0,1,1.64.7,3,3,0,0,1,1,1.39,6.84,6.84,0,0,1,.33,2.34Z"/><path class="cls-1" d="M42,51.77v4.66H41V52.07c0-.83-.26-1.09-.9-1.09a4.87,4.87,0,0,0-2.4,1v4.48H36.58V50.21h.92l.08,1a4.65,4.65,0,0,1,2.78-1.13A1.51,1.51,0,0,1,42,51.77Z"/><path class="cls-1" d="M49,55.51l.12.73a7.82,7.82,0,0,1-2.42.34c-2.14,0-3-.89-3-3.28s.85-3.24,2.86-3.24,2.67.69,2.67,2c0,1.11-.45,1.76-1.48,1.76H44.85c.1,1.48.68,1.81,1.95,1.81A17,17,0,0,0,49,55.51ZM44.83,53h2.62c.57,0,.68-.46.68-.92,0-.79-.42-1.11-1.53-1.11C45.31,51,44.86,51.44,44.83,53Z"/><path class="cls-1" d="M58.24,56.12a.42.42,0,0,1-.42.31h-1a.43.43,0,0,1-.43-.35l-1-4.22c-.07-.32-.12-.64-.2-1H55c-.08.35-.16.67-.22,1l-1,4.22a.44.44,0,0,1-.43.35h-1a.41.41,0,0,1-.42-.31l-1.82-5.91H51.3l1.29,4.58a8.16,8.16,0,0,1,.2.93H53l.23-.93,1-4.23a.4.4,0,0,1,.41-.35h1a.42.42,0,0,1,.41.36l1,4.22c.06.31.15.62.22.93h.16c.08-.31.12-.61.22-.93l1.29-4.58h1.12Z"/><path class="cls-1" d="M71.09,56.12a.41.41,0,0,1-.42.31h-1a.43.43,0,0,1-.42-.35l-1-4.22c-.08-.32-.13-.64-.21-1h-.15l-.22,1-1,4.22a.45.45,0,0,1-.44.35h-1a.42.42,0,0,1-.42-.31L63,50.21h1.12l1.29,4.58a8.16,8.16,0,0,1,.2.93h.17l.23-.93,1-4.23a.41.41,0,0,1,.41-.35h1a.42.42,0,0,1,.41.36l1,4.22c.07.31.16.62.22.93h.17c.07-.31.11-.61.21-.93l1.29-4.58h1.13Z"/><path class="cls-1" d="M79.25,52.05v4.38H78.4l-.13-1a3.74,3.74,0,0,1-2.57,1.15,1.66,1.66,0,0,1-1.86-1.73v-.68c0-1,.64-1.53,1.72-1.53h2.59v-.55c0-.77-.28-1.07-1.26-1.07-.65,0-1.72.07-2.67.16l-.1-.8a20.63,20.63,0,0,1,3-.28C78.5,50.06,79.25,50.54,79.25,52.05Zm-1.1,2.63V53.41l-2.4,0c-.6,0-.8.33-.8.85v.4c0,.65.29.93,1,.93A3.56,3.56,0,0,0,78.15,54.68Z"/><path class="cls-1" d="M84.22,56.77a3.07,3.07,0,0,1-2.72,2.29l-.1-.72a2.65,2.65,0,0,0,1.81-1.65l.11-.26h-.25a.4.4,0,0,1-.39-.28l-2.25-5.94h1.16l1.64,4.63a5.5,5.5,0,0,1,.23.76h.18l.27-.76,1.62-4.63H86.7Z"/><path class="cls-1" d="M96.06,53.33c0,2.38-.78,3.26-2.92,3.26s-2.92-.88-2.92-3.26.79-3.27,2.92-3.27S96.06,51,96.06,53.33Zm-4.71,0c0,1.81.44,2.34,1.79,2.34s1.8-.53,1.8-2.34S94.49,51,93.14,51,91.35,51.51,91.35,53.33Z"/><path class="cls-1" d="M100.43,48.17c-.82,0-1.11.29-1.11,1v1h2v.86h-2v5.36H98.23V51.07H97.11v-.8l1.12-.06V49.1c0-1.16.49-1.82,1.81-1.82.41,0,1.27,0,1.75.08l-.09.81Z"/><path class="cls-1" d="M106.29,54.72a.75.75,0,0,0,.85.83h.6l.13.83a3.74,3.74,0,0,1-1.14.16A1.43,1.43,0,0,1,105.21,55V47.49h1.09Z"/><path class="cls-1" d="M114,55.51l.11.73a7.8,7.8,0,0,1-2.41.34c-2.15,0-3-.89-3-3.28s.86-3.24,2.86-3.24,2.67.69,2.67,2c0,1.11-.44,1.76-1.48,1.76h-2.88c.1,1.48.67,1.81,2,1.81A17.16,17.16,0,0,0,114,55.51ZM109.82,53h2.63c.56,0,.68-.46.68-.92,0-.79-.42-1.11-1.53-1.11C110.31,51,109.86,51.44,109.82,53Z"/><path class="cls-1" d="M120.91,52.05v4.38h-.85l-.13-1a3.72,3.72,0,0,1-2.57,1.15,1.66,1.66,0,0,1-1.86-1.73v-.68c0-1,.64-1.53,1.72-1.53h2.6v-.55c0-.77-.29-1.07-1.27-1.07-.65,0-1.72.07-2.67.16l-.1-.8a20.76,20.76,0,0,1,3-.28C120.16,50.06,120.91,50.54,120.91,52.05Zm-1.09,2.63V53.41l-2.4,0a.74.74,0,0,0-.81.85v.4c0,.65.3.93,1,.93A3.6,3.6,0,0,0,119.82,54.68Z"/><path class="cls-1" d="M126.62,51.08h-.36a5.21,5.21,0,0,0-2.32.79v4.56h-1.09V50.21h.85l.11,1a4.46,4.46,0,0,1,2.66-1.13h.28Z"/><path class="cls-1" d="M133.43,51.77v4.66h-1.08V52.07c0-.83-.26-1.09-.89-1.09a4.83,4.83,0,0,0-2.4,1v4.48H128V50.21h.92l.08,1a4.65,4.65,0,0,1,2.78-1.13A1.51,1.51,0,0,1,133.43,51.77Z"/></g></g></svg>