<svg width="326" height="85" viewBox="0 0 326 85" fill="none" xmlns="http://www.w3.org/2000/svg">
<path d="M169.912 34V16.4C169.912 14.4587 170.488 12.912 171.64 11.76C172.792 10.5867 174.435 10 176.568 10C177.293 10 177.987 10.0747 178.648 10.224C179.331 10.3733 179.907 10.608 180.376 10.928L179.064 14.544C178.787 14.352 178.477 14.2027 178.136 14.096C177.795 13.9893 177.432 13.936 177.048 13.936C176.323 13.936 175.757 14.1493 175.352 14.576C174.968 14.9813 174.776 15.6 174.776 16.432V18.032L174.904 20.176V34H169.912ZM167.256 21.008V17.168H179.192V21.008H167.256ZM189.652 34.256C187.818 34.256 186.186 33.872 184.756 33.104C183.348 32.336 182.228 31.2907 181.396 29.968C180.586 28.624 180.18 27.0987 180.18 25.392C180.18 23.664 180.586 22.1387 181.396 20.816C182.228 19.472 183.348 18.4267 184.756 17.68C186.186 16.912 187.818 16.528 189.652 16.528C191.466 16.528 193.087 16.912 194.516 17.68C195.946 18.4267 197.066 19.4613 197.876 20.784C198.687 22.1067 199.092 23.6427 199.092 25.392C199.092 27.0987 198.687 28.624 197.876 29.968C197.066 31.2907 195.946 32.336 194.516 33.104C193.087 33.872 191.466 34.256 189.652 34.256ZM189.652 30.16C190.484 30.16 191.231 29.968 191.892 29.584C192.554 29.2 193.076 28.656 193.46 27.952C193.844 27.2267 194.036 26.3733 194.036 25.392C194.036 24.3893 193.844 23.536 193.46 22.832C193.076 22.128 192.554 21.584 191.892 21.2C191.231 20.816 190.484 20.624 189.652 20.624C188.82 20.624 188.074 20.816 187.412 21.2C186.751 21.584 186.218 22.128 185.812 22.832C185.428 23.536 185.236 24.3893 185.236 25.392C185.236 26.3733 185.428 27.2267 185.812 27.952C186.218 28.656 186.751 29.2 187.412 29.584C188.074 29.968 188.82 30.16 189.652 30.16ZM202.429 34V16.784H207.197V21.648L206.525 20.24C207.037 19.024 207.858 18.1067 208.989 17.488C210.12 16.848 211.496 16.528 213.117 16.528V21.136C212.904 21.1147 212.712 21.104 212.541 21.104C212.37 21.0827 212.189 21.072 211.997 21.072C210.632 21.072 209.522 21.4667 208.669 22.256C207.837 23.024 207.421 24.2293 207.421 25.872V34H202.429ZM179.48 73.256C177.965 73.256 176.664 72.936 175.576 72.296C174.488 71.656 173.656 70.6853 173.08 69.384C172.504 68.0613 172.216 66.3973 172.216 64.392C172.216 62.3653 172.515 60.7013 173.112 59.4C173.731 58.0987 174.584 57.128 175.672 56.488C176.76 55.848 178.029 55.528 179.48 55.528C181.101 55.528 182.552 55.8907 183.832 56.616C185.133 57.3413 186.157 58.3653 186.904 59.688C187.672 61.0107 188.056 62.5787 188.056 64.392C188.056 66.184 187.672 67.7413 186.904 69.064C186.157 70.3867 185.133 71.4213 183.832 72.168C182.552 72.8933 181.101 73.256 179.48 73.256ZM169.304 73V49.256H174.296V59.272L173.976 64.36L174.072 69.48V73H169.304ZM178.616 69.16C179.448 69.16 180.184 68.968 180.824 68.584C181.485 68.2 182.008 67.656 182.392 66.952C182.797 66.2267 183 65.3733 183 64.392C183 63.3893 182.797 62.536 182.392 61.832C182.008 61.128 181.485 60.584 180.824 60.2C180.184 59.816 179.448 59.624 178.616 59.624C177.784 59.624 177.037 59.816 176.376 60.2C175.715 60.584 175.192 61.128 174.808 61.832C174.424 62.536 174.232 63.3893 174.232 64.392C174.232 65.3733 174.424 66.2267 174.808 66.952C175.192 67.656 175.715 68.2 176.376 68.584C177.037 68.968 177.784 69.16 178.616 69.16ZM198.662 73.256C197.232 73.256 195.952 72.9787 194.822 72.424C193.712 71.8693 192.848 71.0267 192.23 69.896C191.611 68.744 191.302 67.2827 191.302 65.512V55.784H196.294V64.776C196.294 66.2053 196.592 67.2613 197.19 67.944C197.808 68.6053 198.672 68.936 199.782 68.936C200.55 68.936 201.232 68.776 201.83 68.456C202.427 68.1147 202.896 67.6027 203.238 66.92C203.579 66.216 203.75 65.3413 203.75 64.296V55.784H208.742V73H204.006V68.264L204.87 69.64C204.294 70.8347 203.44 71.7413 202.31 72.36C201.2 72.9573 199.984 73.256 198.662 73.256ZM219.159 73.256C217.687 73.256 216.268 73.0853 214.903 72.744C213.559 72.3813 212.492 71.9333 211.703 71.4L213.367 67.816C214.156 68.3067 215.084 68.712 216.151 69.032C217.239 69.3307 218.305 69.48 219.351 69.48C220.503 69.48 221.313 69.3413 221.783 69.064C222.273 68.7867 222.519 68.4027 222.519 67.912C222.519 67.5067 222.327 67.208 221.943 67.016C221.58 66.8027 221.089 66.6427 220.47 66.536C219.852 66.4293 219.169 66.3227 218.423 66.216C217.697 66.1093 216.961 65.9707 216.215 65.8C215.468 65.608 214.785 65.3307 214.167 64.968C213.548 64.6053 213.047 64.1147 212.663 63.496C212.3 62.8773 212.118 62.0773 212.118 61.096C212.118 60.008 212.428 59.048 213.047 58.216C213.687 57.384 214.604 56.7333 215.799 56.264C216.993 55.7733 218.423 55.528 220.087 55.528C221.26 55.528 222.455 55.656 223.671 55.912C224.887 56.168 225.9 56.5413 226.711 57.032L225.047 60.584C224.215 60.0933 223.372 59.7627 222.519 59.592C221.687 59.4 220.876 59.304 220.087 59.304C218.977 59.304 218.167 59.4533 217.655 59.752C217.143 60.0507 216.887 60.4347 216.887 60.904C216.887 61.3307 217.068 61.6507 217.431 61.864C217.815 62.0773 218.316 62.248 218.935 62.376C219.553 62.504 220.225 62.6213 220.951 62.728C221.697 62.8133 222.444 62.952 223.191 63.144C223.937 63.336 224.609 63.6133 225.207 63.976C225.825 64.3173 226.327 64.7973 226.711 65.416C227.095 66.0133 227.287 66.8027 227.287 67.784C227.287 68.8507 226.967 69.8 226.327 70.632C225.687 71.4427 224.759 72.0827 223.543 72.552C222.348 73.0213 220.887 73.256 219.159 73.256ZM230.367 73V55.784H235.359V73H230.367ZM232.863 53.384C231.945 53.384 231.199 53.1173 230.623 52.584C230.047 52.0507 229.759 51.3893 229.759 50.6C229.759 49.8107 230.047 49.1493 230.623 48.616C231.199 48.0827 231.945 47.816 232.863 47.816C233.78 47.816 234.527 48.072 235.103 48.584C235.679 49.0747 235.967 49.7147 235.967 50.504C235.967 51.336 235.679 52.0293 235.103 52.584C234.548 53.1173 233.801 53.384 232.863 53.384ZM250.456 55.528C251.821 55.528 253.037 55.8053 254.104 56.36C255.192 56.8933 256.045 57.7253 256.664 58.856C257.282 59.9653 257.592 61.3947 257.592 63.144V73H252.6V63.912C252.6 62.5253 252.29 61.5013 251.672 60.84C251.074 60.1787 250.221 59.848 249.112 59.848C248.322 59.848 247.608 60.0187 246.968 60.36C246.349 60.68 245.858 61.1813 245.496 61.864C245.154 62.5467 244.984 63.4213 244.984 64.488V73H239.992V55.784H244.76V60.552L243.864 59.112C244.482 57.96 245.368 57.0747 246.52 56.456C247.672 55.8373 248.984 55.528 250.456 55.528ZM270.786 73.256C268.823 73.256 267.095 72.872 265.602 72.104C264.13 71.336 262.988 70.2907 262.178 68.968C261.367 67.624 260.962 66.0987 260.962 64.392C260.962 62.664 261.356 61.1387 262.146 59.816C262.956 58.472 264.055 57.4267 265.442 56.68C266.828 55.912 268.396 55.528 270.146 55.528C271.831 55.528 273.346 55.8907 274.69 56.616C276.055 57.32 277.132 58.344 277.922 59.688C278.711 61.0107 279.106 62.6 279.106 64.456C279.106 64.648 279.095 64.872 279.074 65.128C279.052 65.3627 279.031 65.5867 279.01 65.8H265.026V62.888H276.385L274.466 63.752C274.466 62.856 274.284 62.0773 273.922 61.416C273.559 60.7547 273.058 60.2427 272.418 59.88C271.778 59.496 271.031 59.304 270.178 59.304C269.324 59.304 268.567 59.496 267.906 59.88C267.266 60.2427 266.764 60.7653 266.402 61.448C266.039 62.1093 265.858 62.8987 265.858 63.816V64.584C265.858 65.5227 266.06 66.3547 266.466 67.08C266.892 67.784 267.479 68.328 268.226 68.712C268.994 69.0747 269.89 69.256 270.914 69.256C271.831 69.256 272.631 69.1173 273.314 68.84C274.018 68.5627 274.658 68.1467 275.234 67.592L277.89 70.472C277.1 71.368 276.108 72.0613 274.914 72.552C273.719 73.0213 272.343 73.256 270.786 73.256ZM288.221 73.256C286.749 73.256 285.33 73.0853 283.965 72.744C282.621 72.3813 281.554 71.9333 280.765 71.4L282.429 67.816C283.218 68.3067 284.146 68.712 285.213 69.032C286.301 69.3307 287.368 69.48 288.413 69.48C289.565 69.48 290.376 69.3413 290.845 69.064C291.336 68.7867 291.581 68.4027 291.581 67.912C291.581 67.5067 291.389 67.208 291.005 67.016C290.642 66.8027 290.152 66.6427 289.533 66.536C288.914 66.4293 288.232 66.3227 287.485 66.216C286.76 66.1093 286.024 65.9707 285.277 65.8C284.53 65.608 283.848 65.3307 283.229 64.968C282.61 64.6053 282.109 64.1147 281.725 63.496C281.362 62.8773 281.181 62.0773 281.181 61.096C281.181 60.008 281.49 59.048 282.109 58.216C282.749 57.384 283.666 56.7333 284.861 56.264C286.056 55.7733 287.485 55.528 289.149 55.528C290.322 55.528 291.517 55.656 292.733 55.912C293.949 56.168 294.962 56.5413 295.773 57.032L294.109 60.584C293.277 60.0933 292.434 59.7627 291.581 59.592C290.749 59.4 289.938 59.304 289.149 59.304C288.04 59.304 287.229 59.4533 286.717 59.752C286.205 60.0507 285.949 60.4347 285.949 60.904C285.949 61.3307 286.13 61.6507 286.493 61.864C286.877 62.0773 287.378 62.248 287.997 62.376C288.616 62.504 289.288 62.6213 290.013 62.728C290.76 62.8133 291.506 62.952 292.253 63.144C293 63.336 293.672 63.6133 294.269 63.976C294.888 64.3173 295.389 64.7973 295.773 65.416C296.157 66.0133 296.349 66.8027 296.349 67.784C296.349 68.8507 296.029 69.8 295.389 70.632C294.749 71.4427 293.821 72.0827 292.605 72.552C291.41 73.0213 289.949 73.256 288.221 73.256ZM305.221 73.256C303.749 73.256 302.33 73.0853 300.965 72.744C299.621 72.3813 298.554 71.9333 297.765 71.4L299.429 67.816C300.218 68.3067 301.146 68.712 302.213 69.032C303.301 69.3307 304.368 69.48 305.413 69.48C306.565 69.48 307.376 69.3413 307.845 69.064C308.336 68.7867 308.581 68.4027 308.581 67.912C308.581 67.5067 308.389 67.208 308.005 67.016C307.642 66.8027 307.152 66.6427 306.533 66.536C305.914 66.4293 305.232 66.3227 304.485 66.216C303.76 66.1093 303.024 65.9707 302.277 65.8C301.53 65.608 300.848 65.3307 300.229 64.968C299.61 64.6053 299.109 64.1147 298.725 63.496C298.362 62.8773 298.181 62.0773 298.181 61.096C298.181 60.008 298.49 59.048 299.109 58.216C299.749 57.384 300.666 56.7333 301.861 56.264C303.056 55.7733 304.485 55.528 306.149 55.528C307.322 55.528 308.517 55.656 309.733 55.912C310.949 56.168 311.962 56.5413 312.773 57.032L311.109 60.584C310.277 60.0933 309.434 59.7627 308.581 59.592C307.749 59.4 306.938 59.304 306.149 59.304C305.04 59.304 304.229 59.4533 303.717 59.752C303.205 60.0507 302.949 60.4347 302.949 60.904C302.949 61.3307 303.13 61.6507 303.493 61.864C303.877 62.0773 304.378 62.248 304.997 62.376C305.616 62.504 306.288 62.6213 307.013 62.728C307.76 62.8133 308.506 62.952 309.253 63.144C310 63.336 310.672 63.6133 311.269 63.976C311.888 64.3173 312.389 64.7973 312.773 65.416C313.157 66.0133 313.349 66.8027 313.349 67.784C313.349 68.8507 313.029 69.8 312.389 70.632C311.749 71.4427 310.821 72.0827 309.605 72.552C308.41 73.0213 306.949 73.256 305.221 73.256Z" fill="white"/>
<g clip-path="url(#clip0_7_13)">
<path d="M122.197 7.78005C121.736 6.43659 120.883 5.26005 119.749 4.39979C118.539 3.53208 117.147 2.94908 115.678 2.6947C113.883 2.3742 112.063 2.21899 110.24 2.23104C108.144 2.2432 106.051 2.39811 103.976 2.6947C101.813 3.02375 100.22 3.26306 99.2288 3.44255V53.1293C99.4435 56.8412 98.1744 60.4868 95.6986 63.2701C94.476 64.497 93.0091 65.4556 91.3921 66.0841C89.7751 66.7126 88.0439 66.9972 86.3099 66.9196C84.5906 66.9855 82.8763 66.6952 81.2757 66.067C79.675 65.4388 78.2229 64.4864 77.0112 63.2701C75.7585 61.9065 74.7939 60.3062 74.1745 58.5642C73.5552 56.8221 73.2938 54.9739 73.406 53.1293V33.476C73.4616 28.9124 72.6089 24.3831 70.8973 20.1494C69.2771 16.2254 66.7924 12.7138 63.6267 9.87401C60.2677 6.92152 56.336 4.68673 52.0748 3.30793C51.2786 3.03871 50.4374 2.82931 49.6111 2.60496C45.3994 1.50796 41.0606 0.96984 36.7073 1.00457C31.4978 0.932589 26.3116 1.71068 21.3548 3.30793C17.092 4.68321 13.1596 6.91838 9.80289 9.87401C6.62775 12.7055 4.14142 16.2194 2.53225 20.1494C0.808517 24.3801 -0.0494847 28.9108 0.00855344 33.476V73.4109C-0.0533489 75.3379 0.22112 77.2609 0.819741 79.0945C1.29774 80.4295 2.14691 81.6018 3.26832 82.4747C4.46319 83.3267 5.83309 83.904 7.27919 84.1649C9.09204 84.5009 10.9333 84.6612 12.7772 84.6435C14.8741 84.6335 16.9676 84.4736 19.0414 84.1649C21.2196 83.8508 22.7969 83.5965 23.7884 83.417V33.9097C23.6783 32.0702 23.9349 30.2271 24.5433 28.4867C25.1518 26.7462 26.1 25.1429 27.3335 23.769C28.5503 22.5375 30.0137 21.5747 31.6287 20.9434C33.2437 20.3121 34.974 20.0262 36.7073 20.1045C38.43 20.0393 40.1475 20.3314 41.7508 20.9622C43.3542 21.5931 44.8083 22.5489 46.0209 23.769C47.2648 25.1366 48.2208 26.7386 48.8323 28.4804C49.4438 30.2222 49.6984 32.0683 49.5811 33.9097V53.5332C49.537 58.0854 50.4052 62.6007 52.1348 66.8149C53.7402 70.7513 56.2269 74.2708 59.4055 77.1052C62.7662 80.0553 66.6974 82.2898 70.9574 83.6713C71.7385 83.9256 72.5798 84.1499 73.406 84.3743C77.62 85.4578 81.9577 85.9907 86.3099 85.9597C91.5209 86.0497 96.7116 85.2919 101.677 83.7162C105.935 82.3296 109.865 80.0957 113.229 77.1501C116.404 74.2948 118.89 70.7616 120.5 66.8149C122.213 62.5816 123.066 58.052 123.009 53.4883V13.4637C123.073 11.5365 122.798 9.61303 122.197 7.78005V7.78005Z" fill="white"/>
</g>
<line x1="142.5" y1="67" x2="142.5" y2="18" stroke="white" stroke-width="5"/>
<defs>
<clipPath id="clip0_7_13">
<rect width="123" height="85" fill="white"/>
</clipPath>
</defs>
</svg>
