<svg width="426" height="104" viewBox="0 0 426 104" fill="none" xmlns="http://www.w3.org/2000/svg">
<path d="M250.454 41.555V20.0957C250.454 17.7287 251.156 15.8428 252.561 14.4382C253.965 13.0076 255.968 12.2923 258.569 12.2923C259.454 12.2923 260.299 12.3833 261.105 12.5654C261.938 12.7475 262.64 13.0336 263.212 13.4238L261.613 17.8327C261.275 17.5986 260.897 17.4165 260.481 17.2865C260.065 17.1564 259.623 17.0914 259.155 17.0914C258.27 17.0914 257.581 17.3515 257.087 17.8717C256.618 18.3659 256.384 19.1203 256.384 20.1347V22.0856L256.54 24.6997V41.555H250.454ZM247.215 25.7141V21.0321H261.769V25.7141H247.215Z" fill="#0047BB"/>
<path d="M274.523 41.8672C272.286 41.8672 270.296 41.399 268.553 40.4625C266.836 39.5261 265.471 38.2516 264.456 36.6389C263.468 35.0002 262.974 33.1404 262.974 31.0595C262.974 28.9525 263.468 27.0927 264.456 25.48C265.471 23.8413 266.836 22.5668 268.553 21.6564C270.296 20.72 272.286 20.2518 274.523 20.2518C276.734 20.2518 278.711 20.72 280.453 21.6564C282.196 22.5668 283.562 23.8283 284.55 25.441C285.538 27.0537 286.033 28.9265 286.033 31.0595C286.033 33.1404 285.538 35.0002 284.55 36.6389C283.562 38.2516 282.196 39.5261 280.453 40.4625C278.711 41.399 276.734 41.8672 274.523 41.8672ZM274.523 36.873C275.537 36.873 276.448 36.6389 277.254 36.1707C278.06 35.7025 278.698 35.0392 279.166 34.1808C279.634 33.2964 279.868 32.256 279.868 31.0595C279.868 29.8369 279.634 28.7965 279.166 27.9381C278.698 27.0797 278.06 26.4164 277.254 25.9482C276.448 25.48 275.537 25.2459 274.523 25.2459C273.508 25.2459 272.598 25.48 271.792 25.9482C270.985 26.4164 270.335 27.0797 269.841 27.9381C269.372 28.7965 269.138 29.8369 269.138 31.0595C269.138 32.256 269.372 33.2964 269.841 34.1808C270.335 35.0392 270.985 35.7025 271.792 36.1707C272.598 36.6389 273.508 36.873 274.523 36.873Z" fill="#0047BB"/>
<path d="M290.101 41.555V20.5639H295.915V26.4945L295.095 24.7777C295.72 23.2951 296.721 22.1766 298.1 21.4223C299.478 20.6419 301.156 20.2518 303.133 20.2518V25.8702C302.873 25.8442 302.639 25.8312 302.43 25.8312C302.222 25.8052 302.001 25.7922 301.767 25.7922C300.102 25.7922 298.75 26.2734 297.709 27.2358C296.695 28.1722 296.188 29.6418 296.188 31.6447V41.555H290.101Z" fill="#0047BB"/>
<path d="M262.12 89.4191C260.273 89.4191 258.686 89.0289 257.36 88.2486C256.033 87.4682 255.019 86.2847 254.316 84.698C253.614 83.0853 253.263 81.0564 253.263 78.6114C253.263 76.1403 253.627 74.1114 254.355 72.5247C255.11 70.938 256.15 69.7545 257.477 68.9742C258.803 68.1938 260.351 67.8037 262.12 67.8037C264.097 67.8037 265.865 68.2459 267.426 69.1303C269.013 70.0146 270.261 71.2632 271.172 72.8759C272.108 74.4886 272.576 76.4004 272.576 78.6114C272.576 80.7963 272.108 82.6952 271.172 84.3079C270.261 85.9206 269.013 87.1821 267.426 88.0925C265.865 88.9769 264.097 89.4191 262.12 89.4191ZM249.712 89.1069V60.1563H255.799V72.3687L255.409 78.5724L255.526 84.8151V89.1069H249.712ZM261.066 84.4249C262.081 84.4249 262.978 84.1908 263.759 83.7226C264.565 83.2544 265.202 82.5911 265.67 81.7327C266.165 80.8484 266.412 79.8079 266.412 78.6114C266.412 77.3888 266.165 76.3484 265.67 75.49C265.202 74.6316 264.565 73.9684 263.759 73.5002C262.978 73.032 262.081 72.7978 261.066 72.7978C260.052 72.7978 259.142 73.032 258.335 73.5002C257.529 73.9684 256.892 74.6316 256.423 75.49C255.955 76.3484 255.721 77.3888 255.721 78.6114C255.721 79.8079 255.955 80.8484 256.423 81.7327C256.892 82.5911 257.529 83.2544 258.335 83.7226C259.142 84.1908 260.052 84.4249 261.066 84.4249Z" fill="#0047BB"/>
<path d="M285.508 89.4191C283.765 89.4191 282.204 89.0809 280.826 88.4046C279.473 87.7283 278.42 86.7009 277.665 85.3223C276.911 83.9177 276.534 82.1359 276.534 79.977V68.1158H282.621V79.0796C282.621 80.8223 282.985 82.1099 283.713 82.9423C284.467 83.7486 285.521 84.1518 286.873 84.1518C287.81 84.1518 288.642 83.9567 289.37 83.5665C290.099 83.1503 290.671 82.5261 291.087 81.6937C291.503 80.8353 291.711 79.7689 291.711 78.4943V68.1158H297.798V89.1069H292.024V83.3324L293.077 85.0102C292.375 86.4668 291.334 87.5723 289.956 88.3266C288.603 89.0549 287.12 89.4191 285.508 89.4191Z" fill="#0047BB"/>
<path d="M310.499 89.4191C308.704 89.4191 306.975 89.211 305.31 88.7948C303.671 88.3526 302.371 87.8064 301.408 87.1561L303.437 82.7862C304.399 83.3845 305.531 83.8787 306.831 84.2688C308.158 84.633 309.459 84.8151 310.733 84.8151C312.138 84.8151 313.126 84.646 313.698 84.3079C314.297 83.9697 314.596 83.5015 314.596 82.9032C314.596 82.409 314.362 82.0449 313.894 81.8108C313.451 81.5507 312.853 81.3556 312.099 81.2255C311.344 81.0955 310.512 80.9654 309.602 80.8353C308.717 80.7053 307.82 80.5362 306.91 80.3281C305.999 80.094 305.167 79.7559 304.412 79.3137C303.658 78.8715 303.047 78.2732 302.579 77.5189C302.136 76.7646 301.915 75.7891 301.915 74.5926C301.915 73.2661 302.293 72.0955 303.047 71.0811C303.827 70.0667 304.946 69.2733 306.402 68.7011C307.859 68.1028 309.602 67.8037 311.631 67.8037C313.061 67.8037 314.518 67.9597 316 68.2719C317.483 68.584 318.719 69.0392 319.707 69.6375L317.678 73.9684C316.664 73.3701 315.636 72.9669 314.596 72.7588C313.581 72.5247 312.593 72.4077 311.631 72.4077C310.278 72.4077 309.29 72.5898 308.665 72.9539C308.041 73.3181 307.729 73.7863 307.729 74.3585C307.729 74.8788 307.95 75.2689 308.392 75.529C308.86 75.7891 309.472 75.9972 310.226 76.1533C310.98 76.3094 311.8 76.4524 312.684 76.5825C313.594 76.6865 314.505 76.8556 315.415 77.0897C316.326 77.3238 317.145 77.662 317.873 78.1042C318.628 78.5203 319.239 79.1056 319.707 79.8599C320.175 80.5882 320.409 81.5506 320.409 82.7472C320.409 84.0477 320.019 85.2052 319.239 86.2197C318.459 87.2081 317.327 87.9885 315.844 88.5607C314.388 89.133 312.606 89.4191 310.499 89.4191Z" fill="#0047BB"/>
<path d="M324.165 89.1069V68.1158H330.251V89.1069H324.165ZM327.208 65.1895C326.09 65.1895 325.179 64.8644 324.477 64.2141C323.775 63.5638 323.423 62.7575 323.423 61.7951C323.423 60.8326 323.775 60.0263 324.477 59.376C325.179 58.7257 326.09 58.4006 327.208 58.4006C328.327 58.4006 329.237 58.7127 329.939 59.337C330.642 59.9353 330.993 60.7156 330.993 61.678C330.993 62.6925 330.642 63.5378 329.939 64.2141C329.263 64.8644 328.353 65.1895 327.208 65.1895Z" fill="#0047BB"/>
<path d="M348.659 67.8037C350.324 67.8037 351.806 68.1418 353.107 68.8181C354.433 69.4684 355.474 70.4828 356.228 71.8614C356.982 73.214 357.36 74.9568 357.36 77.0897V89.1069H351.273V78.0261C351.273 76.3354 350.896 75.0868 350.142 74.2805C349.413 73.4741 348.373 73.071 347.02 73.071C346.058 73.071 345.186 73.2791 344.406 73.6952C343.652 74.0854 343.053 74.6967 342.611 75.529C342.195 76.3614 341.987 77.4279 341.987 78.7284V89.1069H335.9V68.1158H341.714V73.9293L340.621 72.1736C341.376 70.769 342.455 69.6895 343.86 68.9352C345.264 68.1808 346.864 67.8037 348.659 67.8037Z" fill="#0047BB"/>
<path d="M373.447 89.4191C371.054 89.4191 368.947 88.9509 367.126 88.0145C365.331 87.0781 363.94 85.8035 362.951 84.1908C361.963 82.5521 361.469 80.6923 361.469 78.6114C361.469 76.5045 361.95 74.6447 362.912 73.032C363.901 71.3932 365.24 70.1187 366.931 69.2083C368.622 68.2719 370.534 67.8037 372.666 67.8037C374.721 67.8037 376.568 68.2459 378.207 69.1303C379.872 69.9886 381.185 71.2372 382.148 72.8759C383.11 74.4886 383.591 76.4264 383.591 78.6894C383.591 78.9235 383.578 79.1966 383.552 79.5088C383.526 79.7949 383.5 80.068 383.474 80.3281H366.424V76.7776H380.275L377.934 77.831C377.934 76.7386 377.713 75.7891 377.27 74.9828C376.828 74.1764 376.217 73.5522 375.437 73.11C374.656 72.6418 373.746 72.4077 372.706 72.4077C371.665 72.4077 370.742 72.6418 369.935 73.11C369.155 73.5522 368.544 74.1895 368.102 75.0218C367.659 75.8282 367.438 76.7906 367.438 77.9091V78.8455C367.438 79.99 367.685 81.0044 368.18 81.8888C368.7 82.7472 369.415 83.4105 370.325 83.8787C371.262 84.3209 372.354 84.5419 373.603 84.5419C374.721 84.5419 375.697 84.3729 376.529 84.0347C377.388 83.6966 378.168 83.1894 378.87 82.5131L382.109 86.0246C381.146 87.1171 379.937 87.9624 378.48 88.5607C377.023 89.133 375.346 89.4191 373.447 89.4191Z" fill="#0047BB"/>
<path d="M394.706 89.4191C392.911 89.4191 391.181 89.211 389.516 88.7948C387.878 88.3526 386.577 87.8064 385.615 87.1561L387.644 82.7862C388.606 83.3845 389.737 83.8787 391.038 84.2688C392.365 84.633 393.665 84.8151 394.94 84.8151C396.344 84.8151 397.333 84.646 397.905 84.3079C398.503 83.9697 398.802 83.5015 398.802 82.9032C398.802 82.409 398.568 82.0449 398.1 81.8108C397.658 81.5507 397.06 81.3556 396.305 81.2255C395.551 81.0955 394.719 80.9654 393.808 80.8353C392.924 80.7053 392.026 80.5362 391.116 80.3281C390.206 80.094 389.373 79.7559 388.619 79.3137C387.865 78.8715 387.253 78.2732 386.785 77.5189C386.343 76.7646 386.122 75.7891 386.122 74.5926C386.122 73.2661 386.499 72.0955 387.253 71.0811C388.034 70.0667 389.152 69.2733 390.609 68.7011C392.065 68.1028 393.808 67.8037 395.837 67.8037C397.268 67.8037 398.724 67.9597 400.207 68.2719C401.69 68.584 402.925 69.0392 403.914 69.6375L401.885 73.9684C400.87 73.3701 399.843 72.9669 398.802 72.7588C397.788 72.5247 396.8 72.4077 395.837 72.4077C394.484 72.4077 393.496 72.5898 392.872 72.9539C392.248 73.3181 391.935 73.7863 391.935 74.3585C391.935 74.8788 392.156 75.2689 392.599 75.529C393.067 75.7891 393.678 75.9972 394.432 76.1533C395.187 76.3094 396.006 76.4524 396.891 76.5825C397.801 76.6865 398.711 76.8556 399.622 77.0897C400.532 77.3238 401.351 77.662 402.08 78.1042C402.834 78.5203 403.445 79.1056 403.914 79.8599C404.382 80.5882 404.616 81.5506 404.616 82.7472C404.616 84.0477 404.226 85.2052 403.445 86.2197C402.665 87.2081 401.534 87.9885 400.051 88.5607C398.594 89.133 396.813 89.4191 394.706 89.4191Z" fill="#0047BB"/>
<path d="M415.433 89.4191C413.639 89.4191 411.909 89.211 410.244 88.7948C408.605 88.3526 407.305 87.8064 406.342 87.1561L408.371 82.7862C409.334 83.3845 410.465 83.8787 411.766 84.2688C413.092 84.633 414.393 84.8151 415.667 84.8151C417.072 84.8151 418.06 84.646 418.633 84.3079C419.231 83.9697 419.53 83.5015 419.53 82.9032C419.53 82.409 419.296 82.0449 418.828 81.8108C418.386 81.5507 417.787 81.3556 417.033 81.2255C416.279 81.0955 415.446 80.9654 414.536 80.8353C413.652 80.7053 412.754 80.5362 411.844 80.3281C410.933 80.094 410.101 79.7559 409.347 79.3137C408.592 78.8715 407.981 78.2732 407.513 77.5189C407.071 76.7646 406.85 75.7891 406.85 74.5926C406.85 73.2661 407.227 72.0955 407.981 71.0811C408.761 70.0667 409.88 69.2733 411.337 68.7011C412.793 68.1028 414.536 67.8037 416.565 67.8037C417.995 67.8037 419.452 67.9597 420.935 68.2719C422.417 68.584 423.653 69.0392 424.641 69.6375L422.612 73.9684C421.598 73.3701 420.571 72.9669 419.53 72.7588C418.516 72.5247 417.527 72.4077 416.565 72.4077C415.212 72.4077 414.224 72.5898 413.6 72.9539C412.975 73.3181 412.663 73.7863 412.663 74.3585C412.663 74.8788 412.884 75.2689 413.326 75.529C413.795 75.7891 414.406 75.9972 415.16 76.1533C415.915 76.3094 416.734 76.4524 417.618 76.5825C418.529 76.6865 419.439 76.8556 420.349 77.0897C421.26 77.3238 422.079 77.662 422.808 78.1042C423.562 78.5203 424.173 79.1056 424.641 79.8599C425.11 80.5882 425.344 81.5506 425.344 82.7472C425.344 84.0477 424.953 85.2052 424.173 86.2197C423.393 87.2081 422.261 87.9885 420.779 88.5607C419.322 89.133 417.54 89.4191 415.433 89.4191Z" fill="#0047BB"/>
<path d="M148.993 8.66838C148.43 7.03034 147.391 5.5958 146.007 4.5469C144.532 3.48893 142.835 2.77809 141.044 2.46793C138.856 2.07715 136.636 1.8879 134.413 1.90259C131.857 1.91742 129.305 2.1063 126.775 2.46793C124.138 2.86913 122.196 3.16092 120.988 3.37976V63.9618C121.249 68.4876 119.702 72.9326 116.683 76.3263C115.193 77.8223 113.404 78.991 111.433 79.7574C109.461 80.5237 107.35 80.8707 105.236 80.776C103.14 80.8564 101.049 80.5025 99.0978 79.7365C97.1461 78.9705 95.3756 77.8092 93.8983 76.3263C92.3709 74.6637 91.1947 72.7125 90.4395 70.5884C89.6844 68.4644 89.3657 66.2109 89.5024 63.9618V39.9989C89.5702 34.4347 88.5306 28.9122 86.4436 23.7501C84.4682 18.9656 81.4387 14.684 77.5787 11.2215C73.4832 7.6216 68.6893 4.89677 63.4937 3.21563C62.523 2.88737 61.4973 2.63206 60.4899 2.35851C55.3546 1.02096 50.0643 0.364838 44.7564 0.407189C38.4046 0.319418 32.0813 1.26812 26.0375 3.21563C20.8399 4.89247 16.0452 7.61778 11.9525 11.2215C8.08108 14.6739 5.04955 18.9583 3.08752 23.7501C0.985809 28.9084 -0.0603357 34.4327 0.010429 39.9989V88.6907C-0.0650472 91.0403 0.269607 93.385 0.999493 95.6206C1.58231 97.2484 2.61769 98.6777 3.985 99.7421C5.44187 100.781 7.11217 101.485 8.87537 101.803C11.0857 102.213 13.3308 102.408 15.579 102.386C18.1357 102.374 20.6882 102.179 23.2168 101.803C25.8726 101.42 27.7958 101.11 29.0047 100.891V40.5278C28.8705 38.2848 29.1833 36.0376 29.9252 33.9155C30.667 31.7935 31.8233 29.8386 33.3272 28.1633C34.8108 26.6618 36.5951 25.488 38.5642 24.7182C40.5333 23.9484 42.6431 23.5999 44.7564 23.6954C46.8569 23.6159 48.9511 23.972 50.906 24.7412C52.8609 25.5103 54.6338 26.6757 56.1123 28.1633C57.6291 29.8309 58.7947 31.7842 59.5402 33.9079C60.2858 36.0316 60.5963 38.2826 60.4532 40.5278V64.4542C60.3995 70.0047 61.458 75.5101 63.567 80.6484C65.5243 85.4479 68.5563 89.7392 72.4319 93.1952C76.5295 96.7921 81.3228 99.5166 86.5169 101.201C87.4693 101.511 88.495 101.785 89.5024 102.058C94.6405 103.379 99.9294 104.029 105.236 103.991C111.59 104.101 117.919 103.177 123.973 101.256C129.165 99.5652 133.957 96.8414 138.058 93.2499C141.929 89.7685 144.96 85.4606 146.923 80.6484C149.012 75.4868 150.052 69.9639 149.982 64.3995V15.5983C150.06 13.2486 149.726 10.9033 148.993 8.66838V8.66838Z" fill="#0047BB"/>
<path fill-rule="evenodd" clip-rule="evenodd" d="M203.015 21.1295V80.8743H193.594V21.1295H203.015Z" fill="#0047BB"/>
</svg>
