<svg width="322" height="323" viewBox="0 0 322 323" fill="none" xmlns="http://www.w3.org/2000/svg">
<path d="M118.18 155.37C118.18 155.37 134.45 227.99 87.8102 257.94C36.6302 290.8 237.72 282.71 237.72 282.71C237.72 282.71 189.64 236.71 208.78 141.92L118.18 155.37Z" fill="black"/>
<path d="M270.65 277.85L270.16 278.31C266.005 282.188 261.646 285.84 257.1 289.25C253.36 292.057 249.493 294.703 245.5 297.19C240.474 300.324 235.276 303.172 229.93 305.72C228.73 306.293 227.52 306.853 226.3 307.4C207.892 315.64 188.089 320.312 167.94 321.17H153.69C140.886 320.618 128.195 318.53 115.89 314.95C108.169 312.711 100.631 309.886 93.3398 306.5L91.6899 305.72C85.643 302.827 79.7814 299.56 74.1396 295.94C70.8596 293.82 67.6534 291.59 64.52 289.25C60.0772 285.907 55.8082 282.339 51.73 278.56L51.2197 278.08L51.6597 277.57C52.3597 276.76 53.0798 275.96 53.8198 275.15C59.175 269.319 65.0978 264.037 71.5 259.38C72.35 258.76 73.2296 258.14 74.1196 257.52C75.3996 256.63 76.7396 255.75 78.1196 254.9C83.0149 251.792 88.1057 249.003 93.3599 246.55C97.0599 244.81 100.973 243.173 105.1 241.64C106.32 241.19 107.55 240.75 108.81 240.32C110.81 239.61 112.97 238.94 115.13 238.32L134.49 224.21V184.58H188.64V223.05C188.64 223.05 200.28 234.12 206.5 238.2C207.179 238.661 207.895 239.066 208.64 239.41C209.51 239.78 211.21 240.34 213.54 241.14C216.78 242.25 221.23 243.81 226.33 245.95C232.97 248.719 239.389 251.991 245.53 255.74C247.35 256.86 249.18 258.05 250.99 259.33C257.39 263.731 263.189 268.949 268.24 274.85L268.45 275.1C269.19 276.05 269.94 276.95 270.65 277.85Z" fill="white" stroke="black" stroke-width="2" stroke-linecap="round" stroke-linejoin="round"/>
<path d="M134.45 185.76C134.45 185.76 155.92 209.57 173 207.26C190.08 204.95 187.79 200.16 187.79 200.16L188.61 184.53L134.45 185.76Z" fill="black"/>
<path d="M115.23 130.68C115.23 130.68 111.439 122.68 103.849 126.75C96.2595 130.82 102.92 151.34 111.44 155.25C119.96 159.16 118.44 152.72 118.44 152.72" fill="white"/>
<path d="M115.23 130.68C115.23 130.68 111.439 122.68 103.849 126.75C96.2595 130.82 102.92 151.34 111.44 155.25C119.96 159.16 118.44 152.72 118.44 152.72" stroke="black" stroke-width="2" stroke-linecap="round" stroke-linejoin="round"/>
<path d="M105.48 134.8C105.48 134.8 114.27 134.68 116.8 141.92L105.48 134.8Z" fill="white"/>
<path d="M105.48 134.8C105.48 134.8 114.27 134.68 116.8 141.92" stroke="black" stroke-width="2" stroke-linecap="round" stroke-linejoin="round"/>
<path d="M110.7 146.32C110.7 146.32 107.27 140.22 113.08 137.69L110.7 146.32Z" fill="white"/>
<path d="M110.7 146.32C110.7 146.32 107.27 140.22 113.08 137.69" stroke="black" stroke-width="2" stroke-linecap="round" stroke-linejoin="round"/>
<path d="M210.35 130.68C210.35 130.68 214.15 122.68 221.74 126.75C229.33 130.82 222.67 151.34 214.15 155.25C205.63 159.16 207.15 152.72 207.15 152.72" fill="white"/>
<path d="M210.35 130.68C210.35 130.68 214.15 122.68 221.74 126.75C229.33 130.82 222.67 151.34 214.15 155.25C205.63 159.16 207.15 152.72 207.15 152.72" stroke="black" stroke-width="2" stroke-linecap="round" stroke-linejoin="round"/>
<path d="M220.09 134.8C220.09 134.8 211.3 134.68 208.77 141.92L220.09 134.8Z" fill="white"/>
<path d="M220.09 134.8C220.09 134.8 211.3 134.68 208.77 141.92" stroke="black" stroke-width="2" stroke-linecap="round" stroke-linejoin="round"/>
<path d="M214.88 146.32C214.88 146.32 218.31 140.22 212.51 137.69L214.88 146.32Z" fill="white"/>
<path d="M214.88 146.32C214.88 146.32 218.31 140.22 212.51 137.69" stroke="black" stroke-width="2" stroke-linecap="round" stroke-linejoin="round"/>
<path d="M115.57 118.95C115.57 118.95 113.12 162.29 125.66 175.37C138.2 188.45 144.47 193.09 155.37 194.46C166.27 195.83 171.46 196.09 185.37 186.82C199.28 177.55 204.18 168.82 206.09 159.29C208 149.76 213.17 109.68 213.17 109.68L200.09 76.68L159.47 65.2399L145.3 66.8699L129.73 78.05L118.01 96.58L115.57 118.95Z" fill="white" stroke="black" stroke-width="1.51" stroke-miterlimit="10"/>
<path d="M184.34 128.94C185.184 128.94 186.01 128.69 186.712 128.22C187.414 127.751 187.961 127.084 188.285 126.304C188.608 125.524 188.693 124.665 188.528 123.837C188.363 123.009 187.957 122.248 187.359 121.651C186.762 121.054 186.001 120.647 185.173 120.482C184.345 120.317 183.486 120.402 182.706 120.725C181.925 121.048 181.259 121.595 180.79 122.298C180.32 123 180.07 123.825 180.07 124.67C180.07 125.802 180.52 126.889 181.32 127.689C182.121 128.49 183.207 128.94 184.34 128.94V128.94Z" fill="black"/>
<path d="M138.72 128.94C139.564 128.94 140.39 128.69 141.092 128.22C141.794 127.751 142.341 127.084 142.665 126.304C142.988 125.524 143.072 124.665 142.908 123.837C142.743 123.009 142.336 122.248 141.739 121.651C141.142 121.054 140.381 120.647 139.553 120.482C138.724 120.317 137.866 120.402 137.086 120.725C136.306 121.048 135.639 121.595 135.169 122.298C134.7 123 134.45 123.825 134.45 124.67C134.45 125.802 134.9 126.889 135.701 127.689C136.501 128.49 137.587 128.94 138.72 128.94V128.94Z" fill="black"/>
<path d="M157.9 136.39V144.99C157.883 146.28 158.372 147.525 159.262 148.459C160.151 149.394 161.37 149.943 162.66 149.99C163.449 149.973 164.223 149.769 164.918 149.395C165.613 149.022 166.21 148.489 166.66 147.84" stroke="black" stroke-width="2" stroke-linecap="round" stroke-linejoin="round"/>
<path d="M145.36 158.38C145.36 158.38 163.71 169.29 178.8 158.38" stroke="black" stroke-width="2" stroke-linecap="round" stroke-linejoin="round"/>
<path d="M172.34 111.05L176.03 115.73L200.93 115.28C200.93 115.28 192.99 111.35 190.26 111.05C187.53 110.75 172.34 111.05 172.34 111.05Z" fill="black"/>
<path d="M151.87 111.05L148.18 115.73L123.28 115.28C123.28 115.28 131.21 111.35 133.95 111.05C136.69 110.75 151.87 111.05 151.87 111.05Z" fill="black"/>
<path d="M208.57 239.43C156.67 273.97 116.95 239.83 115.18 238.28L115.12 238.22" stroke="black" stroke-width="2" stroke-miterlimit="10"/>
<path d="M161 77.0499C161 77.0499 145.36 95.27 129.43 105.85C114.55 115.73 118.55 184.5 118.55 184.5C118.55 184.5 93.0601 106.42 105.48 75.8899C109.48 66.2099 118.58 56.4099 130.21 49.1799C166.07 26.8899 212.8 50.75 216.21 92.83C218.07 115.92 217.99 149.93 207.04 180.73C207.04 180.73 214.12 124.85 196.84 104.73C196.83 104.72 170.19 90.3699 161 77.0499Z" fill="black"/>
<path d="M158.39 321.21H153.69C140.886 320.658 128.195 318.57 115.89 314.99C108.448 295.229 97.5593 276.946 83.73 260.99C80.3 256.99 78.0996 254.93 78.0996 254.93L51.6699 277.62C52.3999 276.23 79.27 226.52 106.73 239.3C107.41 239.62 108.1 239.97 108.78 240.37C120.11 246.94 131.44 264.19 140.98 282.6C147.97 296.05 154.02 310.19 158.39 321.21Z" fill="black"/>
<path d="M112.87 254.87C112.87 254.87 137.44 287.09 145.09 313.58" stroke="white" stroke-miterlimit="10"/>
<path d="M88.5698 253.63C88.5698 253.63 99.2996 266.78 103.64 274.63" stroke="white" stroke-miterlimit="10"/>
<path d="M158.57 287.66C159.634 287.66 160.674 287.344 161.559 286.753C162.443 286.162 163.133 285.322 163.541 284.339C163.948 283.356 164.054 282.274 163.847 281.23C163.639 280.187 163.126 279.228 162.374 278.476C161.622 277.723 160.663 277.211 159.62 277.003C158.576 276.796 157.494 276.902 156.511 277.309C155.528 277.717 154.688 278.406 154.097 279.291C153.506 280.176 153.19 281.216 153.19 282.28C153.19 283.707 153.757 285.075 154.766 286.084C155.775 287.093 157.143 287.66 158.57 287.66V287.66Z" fill="black"/>
<path d="M158.57 268.27C159.634 268.27 160.674 267.954 161.559 267.363C162.443 266.772 163.133 265.932 163.541 264.949C163.948 263.966 164.054 262.884 163.847 261.84C163.639 260.797 163.126 259.838 162.374 259.086C161.622 258.333 160.663 257.821 159.62 257.613C158.576 257.406 157.494 257.512 156.511 257.919C155.528 258.327 154.688 259.016 154.097 259.901C153.506 260.786 153.19 261.826 153.19 262.89C153.19 264.317 153.757 265.685 154.766 266.694C155.775 267.703 157.143 268.27 158.57 268.27V268.27Z" fill="black"/>
</svg>
