<svg width="406" height="376" viewBox="0 0 406 376" fill="none" xmlns="http://www.w3.org/2000/svg">
<path d="M61.0884 279V248.719V212.851C61.0884 204.141 62.3213 196.54 51.8357 195.942C41.3501 195.344 36.357 207.215 18.3816 203.116C8.89477 200.952 0.905771 191.331 0.905762 180.058C0.905745 160.587 22.0381 148.839 42.3486 161.612C61.0884 173.397 61.0884 151.364 61.0884 144.19V97C61.0884 95.8954 61.9839 95 63.0884 95H131.991C145.972 96.0248 137.483 111.909 133.489 121.645C125.5 141.116 136.318 152.047 143.974 154.95C170.937 161.612 177.428 132.917 168.441 121.645C156.152 106.231 159.453 96.5372 165.445 96.5372H231.699C232.861 96.5372 233.783 97.5182 233.741 98.6795C233.435 107.252 233.851 127.414 233.851 147.265C233.851 173.909 257.818 165.198 257.818 165.711C257.818 166.223 293.731 156.143 296.764 184.157C298.762 202.603 279.288 214.388 257.818 207.727C240.642 202.398 237.845 208.752 237.845 214.388V279C237.845 280.105 236.95 281 235.845 281H162.075C161.377 281 160.721 280.628 160.372 280.024C151.319 264.309 159.926 257.069 164.946 244.62C170.937 229.76 164.389 217.385 154.46 214.388C141.478 210.47 118.509 217.463 127.996 244.62C135.312 265.561 134.987 281 123.003 281H63.0884C61.9839 281 61.0884 280.105 61.0884 279Z" fill="white"/>
<path d="M232.671 99H290.171C297.171 99 309.939 92.6202 305.671 67.0134C301.171 40.0117 322.642 40.2364 331.671 43.5109C336.338 45.1793 344.271 52.2156 338.671 67.0134C331.671 85.5107 336.171 100.016 350.671 100.016H400.671C401.776 100.016 402.671 100.911 402.671 102.016V276.48C402.671 277.593 401.784 278.492 400.672 278.482C391.108 278.396 350.167 278.059 342.671 278.5C334.171 279 335.646 288.275 340.671 300C348.171 317.5 340.421 338.853 315.171 334.5C300.671 332 294.671 316.5 300.671 300C306.671 283.5 299.671 278.5 293.171 278.5C279.965 278.5 249.072 278.333 235.906 278.5" stroke="white" stroke-width="5" stroke-linecap="round"/>
<path d="M240.406 335C243.572 340.5 250.106 352.4 250.906 356" stroke="white" stroke-width="5" stroke-linecap="round"/>
<path d="M227.906 338C226.239 342.5 225.406 355.9 235.406 373.5" stroke="white" stroke-width="5" stroke-linecap="round"/>
<path d="M208.906 335C202.406 341 189.106 355 187.906 363" stroke="white" stroke-width="5" stroke-linecap="round"/>
<path d="M229.906 41.5C236.406 35.5 249.706 21.5 250.906 13.5" stroke="white" stroke-width="5" stroke-linecap="round"/>
<path d="M210.906 38.5C212.572 34 213.406 20.6 203.406 3" stroke="white" stroke-width="5" stroke-linecap="round"/>
<path d="M198.406 41.5C195.239 36 188.706 24.1 187.906 20.5" stroke="white" stroke-width="5" stroke-linecap="round"/>
</svg>
